<?xml version="1.0"?>
<svg width="1043" height="1034" xmlns="http://www.w3.org/2000/svg" xmlns:svg="http://www.w3.org/2000/svg" version="1.1">
 <g class="layer">
  <title>Layer 1</title>
  <g id="svg_11">
   <path d="m214.29967,0.8389c12.65422,-1.14201 27.6293,-2.634 37.64953,6.92574c9.46764,7.92041 10.51756,21.34825 9.43081,32.8052c-1.1236,13.11471 -10.90437,22.95074 -18.76951,32.65784c-7.77305,9.85445 -18.43796,17.36962 -30.41066,21.12721c-17.27753,4.88118 -37.18905,-4.29175 -44.94367,-20.40885c-5.7469,-11.14382 -9.85445,-24.09275 -6.48368,-36.59962c2.83661,-11.14382 9.59658,-23.37439 21.71664,-26.0268c10.95962,-2.4498 20.70356,-8.73087 31.81054,-10.48072m13.50152,9.50448c-4.69698,2.13667 -9.00716,5.69164 -14.3304,6.00477c-8.8598,0.55258 -18.08799,-0.53417 -26.52414,2.87345c-11.16224,3.8681 -20.6483,14.51459 -20.04045,26.81884c-0.92098,11.1254 6.41,20.29833 12.32267,28.9371c7.8283,11.45695 24.68218,15.30663 36.74697,8.4914c15.98816,-8.82296 27.57405,-23.81646 35.71549,-39.85988c1.93405,-4.56804 4.7154,-9.61499 3.16816,-14.68037c-2.634,-7.60727 -7.71779,-15.06718 -15.56451,-17.90379c-3.62865,-1.27095 -7.9204,-3.03922 -11.49379,-0.68152z" fill="#bcbbc3" id="svg_2"/>
   <path d="m72.7271,262.41475c10.11233,-3.94178 19.54313,4.21807 24.99532,11.9727c6.75997,8.19669 8.19669,19.28525 7.14678,29.54494c-0.58943,11.42011 -8.32564,20.57462 -14.97509,29.2318c-13.59362,13.94359 -35.67864,15.85922 -53.4535,9.90971c-13.15155,-3.88652 -22.21396,-15.50925 -27.75824,-27.48195c-4.69698,-9.96497 -4.19965,-22.67445 2.85503,-31.38689c5.69164,-6.17054 14.09095,-8.47299 21.53244,-11.77008c12.5437,-5.85742 26.81884,-5.01012 39.65726,-10.02023m-1.80511,9.32028c-14.75405,6.17055 -31.99474,4.03388 -45.6252,13.29891c-7.29413,3.35236 -10.57281,11.64115 -9.39396,19.30368c0.42365,12.37792 9.22819,22.39815 19.06422,28.93709c9.98339,6.66787 22.84023,5.3785 33.89195,2.61557c8.82296,-2.15508 14.90141,-9.57816 20.5562,-16.17235c8.73086,-10.64649 7.42308,-25.87945 2.65242,-37.96267c-2.96555,-8.12301 -12.82,-14.16462 -21.14563,-10.02023z" fill="#bcbbc3" id="svg_3"/>
   <path d="m322.66181,324.17546c29.67387,-6.85207 60.19504,-8.2888 90.45834,-10.59124c9.044,-0.71836 17.94063,1.80512 26.96621,1.43673c16.08025,-1.08676 32.01315,1.93405 47.98289,3.35235c17.33279,2.43138 35.0708,3.49972 51.74048,9.24661c19.43261,7.33098 40.44931,9.30187 59.53195,17.77486c19.56155,5.98635 37.63111,15.67502 56.95321,22.28764c14.9935,7.51517 30.04226,14.97508 44.52002,23.44807c7.23888,3.70232 14.84614,6.96258 20.90617,12.5437c6.72313,6.02319 15.2698,9.26503 22.72971,14.21988c18.27218,13.50153 36.56278,27.02146 53.58244,42.1439c7.69936,6.99943 16.30129,13.16997 22.7297,21.49561c7.49676,9.72551 17.97747,16.52232 25.86103,25.91628c6.07845,7.29414 13.29891,13.51994 19.61681,20.62989c16.66968,19.65364 32.5289,39.95197 48.27761,60.3424c4.69698,7.03626 7.66253,15.23296 13.63046,21.44034c7.18362,7.55201 10.62807,17.55382 16.22761,26.19258c8.97031,14.40408 18.08798,29.17655 22.41658,45.75413c3.20499,12.30425 10.05706,23.44807 11.80692,36.17597c2.15508,15.80397 5.06537,31.88422 2.43138,47.83554c-0.49733,4.47595 -1.89721,11.38328 3.8681,13.07787c8.39931,2.33928 17.33279,2.83661 25.32686,6.64946c7.97566,3.75758 16.79862,5.91267 24.11118,10.97804c4.69698,4.91802 5.94951,12.02796 7.60727,18.40112c2.4498,9.78077 1.6025,19.96678 -0.16578,29.78439c-2.06299,11.25434 -3.03922,23.20862 -9.30186,33.11833c-5.87584,9.35712 -14.3304,18.23534 -25.64,20.35359c-17.40646,3.27868 -35.08922,5.01011 -52.73514,6.50209c-7.86514,0.51575 -15.67502,-1.12359 -23.54016,-0.90255c-10.40704,0.20261 -20.81408,0.05526 -31.22112,-0.23946c-8.41773,0.57101 -10.00181,-10.11232 -13.79623,-15.67502c-10.60966,8.32563 -17.7196,20.05887 -27.85034,28.86341c-8.1967,7.14678 -14.99351,15.78555 -23.65069,22.435c-7.2573,5.59954 -13.75939,12.13847 -21.27457,17.40646c-23.33755,15.98816 -46.30671,33.21043 -73.1624,42.95436c-14.0541,4.58647 -26.65307,13.04104 -41.33344,15.71187c-12.52528,2.15508 -24.53482,6.41 -36.80224,9.55974c-28.99235,7.31255 -59.07145,6.29948 -88.63481,8.87821c-16.57758,0.25788 -33.17359,-0.20261 -49.76959,0.12894c-11.07014,0.31313 -22.01135,-1.6946 -33.06307,-1.82353c-22.84022,-0.03684 -45.49626,-3.40762 -68.15229,-5.87583c-12.56212,-1.28937 -24.92163,-3.94179 -37.13378,-7.03627c-15.52767,-3.99704 -31.90264,-4.31017 -46.9514,-10.22284c-17.55382,-7.18362 -35.97336,-12.02796 -53.01143,-20.50095c-13.77782,-4.34701 -25.23477,-13.35416 -38.40474,-18.99054c-13.88833,-6.90732 -24.94005,-18.1064 -38.11002,-26.1189c-10.24126,-5.39693 -17.6275,-14.5146 -26.89252,-21.23773c-10.59124,-7.80988 -17.83012,-19.00896 -26.92937,-28.34767c-5.91267,-5.94951 -11.36485,-12.35951 -15.65661,-19.57997c-4.67856,-7.80988 -13.40942,-14.27514 -12.12005,-24.38746c3.57339,-0.58943 7.14678,-1.17885 10.72017,-1.71302c3.57339,-8.97031 -0.99466,-18.05115 -2.43138,-26.92936c-3.8681,-18.86161 -0.55259,-38.58893 7.23888,-56.03224c4.27333,-9.32028 12.15689,-16.17235 19.24841,-23.30071c4.75225,-4.8996 10.70176,-8.36247 16.89072,-11.10698c9.33871,-4.16282 17.99589,-10.29652 28.27399,-11.95428c19.06422,-3.14974 38.86522,-3.99704 57.81893,0.36839c8.27037,1.71302 16.025,7.47833 24.7927,5.52586c-3.75759,-13.61204 -5.85742,-27.8135 -4.75225,-41.92287c0.79204,-12.30425 -0.01842,-25.30844 5.89426,-36.56278c5.36008,-10.53597 10.02022,-21.51402 16.66968,-31.35005c6.11528,-9.09925 15.34347,-15.43557 22.14028,-23.92698c2.59716,-3.13132 1.21569,-7.75463 -1.56566,-10.24126c-5.36008,-5.47061 -11.49379,-10.51756 -14.31198,-17.88538c-15.01192,5.12064 -31.33163,4.03388 -46.7672,1.67618c-13.96201,-2.54189 -28.1819,-3.97862 -41.84919,-7.90198c-8.84138,-2.41296 -15.91448,-8.47299 -22.87707,-14.09095c-7.40465,-6.11528 -15.0856,-12.52528 -19.24841,-21.38508c-4.1444,-8.69402 -9.20977,-17.40646 -9.7071,-27.24249c-0.33155,-15.47242 -1.89721,-31.8658 5.7469,-46.01201c4.25491,-12.19373 13.68571,-22.50867 14.69879,-35.71548c-3.92336,-2.61558 -9.08084,-5.28641 -9.68868,-10.49914c0.33155,-5.78373 4.07072,-10.62807 7.60727,-14.93824c8.6756,-9.92813 18.80635,-18.86161 30.70537,-24.71902c20.11413,-10.18601 40.41246,-20.59304 62.38697,-26.15574c12.85684,-3.64707 25.30844,-8.60193 38.38632,-11.4938m71.50464,9.35713c-15.95132,-0.12894 -31.57109,3.22342 -47.43031,4.40227c-13.13313,1.21569 -25.63999,5.76531 -38.1837,9.59658c-9.79919,3.13132 -19.8931,5.32324 -29.45284,9.15451c-15.01192,6.33632 -30.85272,10.92278 -44.79631,19.57997c-11.60431,5.36008 -22.72971,12.91209 -29.32391,24.09275c-0.03684,6.87049 10.00181,10.25968 8.98874,17.6275c-2.87345,10.75701 -11.65957,18.64057 -15.38032,29.06603c-3.88652,10.75701 -9.81761,21.51402 -8.4914,33.33936c1.08675,12.7279 3.72074,25.98997 11.53063,36.47068c10.64649,14.6988 28.31082,22.85865 45.86464,25.69526c12.56213,1.84195 25.14267,4.31017 37.88899,4.10756c6.06003,0.16577 12.19374,-0.55259 18.21692,0.36839c4.69699,0.99465 7.42308,5.19431 10.24127,8.69402c7.88356,-0.97624 16.22761,-1.03149 23.70594,1.91563c1.95247,-10.16758 4.54963,-20.48252 10.2781,-29.2318c6.88891,-11.34644 19.46945,-17.51698 26.67149,-28.62397c7.38624,-11.53063 18.4748,-19.69048 28.88184,-28.27399c10.53597,-9.28344 22.65603,-16.48548 33.85511,-24.88479c22.80339,-14.64353 46.30672,-29.12129 72.77559,-36.10229c13.99885,-3.42604 27.1504,-9.67026 41.37028,-12.26742c18.60373,-3.55497 37.41008,-7.44149 56.45588,-6.15212c0.8473,3.03922 1.93405,6.09687 2.09983,9.32029c-3.09448,6.39157 -10.70175,8.27037 -17.13017,9.11767c-14.77247,1.84195 -29.69229,3.33393 -43.96744,7.79146c-8.93347,2.89187 -17.88537,5.67322 -27.0583,7.75463c-11.7885,2.50505 -22.17712,8.87821 -33.54197,12.69106c-9.55974,3.07606 -16.9644,10.24126 -26.06365,14.25672c-14.27514,6.26264 -26.08206,16.6881 -38.11002,26.33994c-23.33755,17.42488 -45.12787,37.44692 -61.59493,61.61335c-3.68391,6.39158 -3.97862,14.01727 -6.98101,20.66672c-1.95247,3.40761 -6.18896,3.99704 -9.44922,5.48902c3.55497,10.20443 13.4831,16.06184 23.15336,19.50629c13.24364,4.60489 25.76893,11.73325 39.91513,13.24365c15.14086,2.65241 30.61327,2.56031 45.80939,0.34997c17.22227,-1.17885 33.67092,-6.85207 50.78267,-8.73086c2.3577,3.40761 4.19965,9.81761 9.55974,8.49141c5.50744,-2.76294 9.35712,-7.84673 14.25672,-11.4938c11.34643,-8.6756 24.03749,-15.34347 36.15755,-22.87706c9.20977,-6.09687 19.59839,-9.96497 29.45284,-14.84615c26.41362,-14.53301 56.4743,-20.31675 86.03766,-24.47956c24.90321,-4.8996 50.56163,-1.6025 75.29907,2.78135c8.80454,1.82353 17.92221,3.1129 26.1189,7.03626c6.22581,2.63399 7.14678,12.52529 1.39989,16.19077c-4.25492,1.82354 -8.98874,0.40523 -13.29891,-0.34997c-17.83011,-4.32859 -35.62338,-10.00181 -54.13502,-10.05706c-19.92994,-1.30779 -39.65726,2.56031 -58.88726,7.33097c-20.16939,5.12063 -40.94663,9.46764 -59.23723,19.81942c-9.85445,4.67857 -19.48787,9.78078 -28.90026,15.28822c-10.81226,5.45218 -19.46945,14.16462 -30.09752,19.92994c-7.27572,4.99169 -15.36189,12.26741 -15.7487,21.62454c8.04933,14.9935 20.92459,26.76358 33.13674,38.38631c8.32564,8.1967 19.23,12.7279 28.90026,19.00896c10.59123,7.10995 23.44807,9.20977 34.81292,14.73563c13.59362,6.46526 29.04761,5.54429 43.58063,8.17828c6.74155,1.78669 10.62807,-4.88118 14.49618,-9.06241c13.92517,-15.71187 33.67091,-23.90856 52.16413,-32.78678c12.89367,-5.45218 27.07672,-6.07845 40.81769,-7.47833c13.64888,-1.36305 27.37143,-1.45514 41.03873,-2.68925c8.8598,-2.00773 16.00658,14.1462 6.17054,17.31436c-29.95016,5.52586 -62.71852,-0.97623 -90.32941,14.62512c-10.86752,6.29948 -26.67149,9.11767 -30.98166,22.58235c6.33632,0.64468 13.02261,0.97623 18.62215,4.34701c6.42842,3.9602 10.70175,10.33336 15.9329,15.61977c3.61023,3.66549 8.80454,4.91801 13.42785,6.85207c10.48071,3.73916 19.87468,10.03864 30.57643,13.24364c8.45457,2.50506 16.98281,4.77066 25.19793,8.0125c14.93824,5.82058 31.16585,5.87583 46.74878,8.7677c11.0333,2.19193 22.32448,2.13667 33.48672,3.35236c20.24307,2.11824 40.09933,-3.62865 60.06611,-5.67322c6.90733,-1.56566 12.80158,7.33098 7.64411,12.67264c-7.79146,9.09925 -21.75347,4.08914 -30.79747,10.07549c-3.07606,15.03034 3.66549,30.11594 1.45515,45.23838c-0.82888,3.94178 -3.75759,6.98101 -6.04161,10.14917c-2.83661,-2.59716 -7.57043,-4.45753 -7.60727,-8.91506c-1.16043,-13.26206 0.69994,-27.18723 -4.32859,-39.82304c-1.71302,-4.07072 -6.68629,-3.55497 -10.2781,-3.81284c-16.7802,-0.03684 -33.35779,-2.94713 -49.84327,-5.76532c-8.7677,-1.49198 -17.68276,-4.40227 -26.59781,-2.32086c1.97089,5.24957 2.96554,11.64115 7.9204,15.0856c11.58589,7.97566 26.46887,9.22819 37.9995,17.35121c5.82058,3.92336 9.37555,10.11232 13.40943,15.67502c-2.87345,1.6946 -5.32325,3.97862 -6.99943,6.87049c-9.17293,-5.32325 -17.4433,-12.34109 -27.31617,-16.31971c-7.51517,-3.59181 -12.7279,6.48368 -20.0773,5.48902c-9.615,-1.21569 -18.69583,-5.06537 -27.0583,-9.83603c-12.37793,-7.42308 -27.03988,-8.80454 -40.7256,-12.54371c-26.43203,-6.81523 -54.0245,-7.71778 -81.11964,-5.67321c-20.35359,3.75758 -42.42019,7.9204 -57.74525,23.02442c-6.72313,5.58112 -9.96497,15.85922 -19.17473,17.88537c-5.43377,1.6025 -9.28345,-3.3892 -12.23058,-7.0731c-8.43615,-11.77009 -20.50094,-20.05888 -31.00008,-29.78439c-13.20681,-9.8913 -26.3031,-20.61147 -42.18074,-25.91629c-15.39873,-7.64411 -32.47364,-10.11233 -49.1249,-13.50152c-14.90141,-3.27868 -30.2633,-2.13667 -45.40416,-2.13667c-13.09629,0.03684 -25.78736,3.75759 -38.25738,7.40465c-8.25196,2.4498 -15.67503,7.18362 -21.62454,13.37259c-3.94178,3.61023 -7.12836,8.34405 -12.0648,10.64649c-5.12063,0.69994 -9.30186,-4.64172 -8.56508,-9.48606c-0.20262,-8.82296 7.55201,-14.34882 13.59362,-19.43261c15.6566,-13.70414 37.11537,-16.39339 56.67691,-20.72198c21.12721,-1.8788 42.88069,-2.24719 63.60267,3.03922c17.31436,4.1444 35.42077,6.41 51.29841,15.03034c16.17235,6.74155 30.37381,17.11175 44.20689,27.70299c9.90971,8.04934 17.62749,18.45637 28.10821,25.86103c5.26799,-3.37078 10.44388,-6.88891 15.15928,-11.01489c8.17827,-7.38623 18.69583,-11.21749 28.5687,-15.7487c14.09095,-6.33632 29.78439,-6.83365 44.90683,-8.34405c17.38805,-2.24718 34.75767,1.17885 52.07204,2.37612c12.02795,0.73678 24.01907,2.78135 35.31025,7.10994c11.07014,4.1444 23.06126,2.81819 34.61031,2.39454c-3.84968,-6.92574 -9.7071,-12.43319 -16.025,-17.07491c-6.20738,-4.53121 -13.94359,-5.85741 -21.05353,-8.34405c-8.84138,-2.83661 -16.65126,-8.03092 -25.30844,-11.27276c-6.85207,-2.72609 -14.25672,-4.91801 -19.63523,-10.20442c-4.86276,-4.32859 -8.17827,-10.20442 -13.50152,-13.98043c-8.08618,-1.19727 -16.31971,-0.25787 -24.40589,-1.4183c-19.32209,-2.46822 -38.68103,-4.75224 -57.80051,-8.45457c-9.4308,-1.67618 -17.62749,-6.88891 -26.50571,-10.13075c-22.30606,-6.68629 -40.70718,-21.5877 -59.07146,-35.29183c-5.10221,-4.16282 -8.7677,-9.68868 -13.02261,-14.62511c-6.15212,-7.45992 -13.22523,-14.38566 -17.66433,-23.0981c-3.81285,-7.80989 -4.01546,-16.68811 -4.07072,-25.19793c-29.30549,6.00477 -59.31091,10.9412 -89.33476,8.41773c-6.72313,-0.57101 -13.28048,-2.61558 -20.04046,-2.74451c-2.68925,-0.44207 -3.29709,2.61557 -4.21807,4.40227c-3.13132,7.09152 -4.67856,15.50925 -10.88595,20.72197c-4.84433,3.70233 -11.21749,-1.39988 -13.15155,-6.02318c-0.69994,-9.48607 5.52586,-17.55382 10.75701,-24.84796c-10.11232,-3.0208 -17.64591,-13.46468 -28.84499,-12.26741c-5.06537,0.11051 -8.04934,4.75224 -10.90437,8.27037c-4.54962,6.41 -9.35712,12.6358 -14.47775,18.58531c-7.99408,9.044 -11.08856,20.96144 -15.85923,31.7737c-5.63637,12.41477 -4.75224,26.32152 -4.51278,39.60201c0.23945,14.4225 6.57577,27.73982 12.70948,40.50456c4.21807,9.32029 14.62511,12.9121 21.25614,20.1694c-3.97862,7.80988 -8.80453,16.61442 -17.94062,19.02738c-6.20739,1.36304 -11.07015,-4.07072 -13.15155,-9.26503c-3.68391,-6.85207 -5.26799,-16.65126 -13.7594,-19.15632c-18.65899,-6.74155 -37.76005,-15.7487 -58.13206,-13.391c-10.62807,1.52882 -22.02977,0.31313 -31.82896,5.45218c-7.2573,3.81284 -14.60669,7.42307 -21.86399,11.2175c-8.34405,4.23649 -13.40942,12.43319 -18.67741,19.801c-10.00181,15.25138 -10.95963,34.53663 -7.33098,51.97994c0.64469,10.05706 6.26265,18.64057 8.91506,28.12663c-1.97089,3.70233 -5.15747,6.57577 -7.27572,10.20442c-1.30778,4.62331 2.98397,8.1967 5.39693,11.62273c5.65479,6.24422 9.26502,13.96201 14.56985,20.44569c9.85445,9.90971 20.79566,18.71425 32.34471,26.56097c13.09629,8.91506 25.03215,19.48787 38.69945,27.59247c10.49913,7.01784 22.19554,11.91744 33.13674,18.21692c4.88118,2.78135 10.16759,4.75224 15.49084,6.55735c10.86752,3.51814 20.31675,10.49914 31.60792,12.89368c15.89606,3.73917 30.68695,11.36485 46.9514,13.70414c12.21216,1.97089 24.40589,4.12597 36.6733,5.93109c20.35359,3.16816 40.52298,9.08083 61.30022,8.21511c11.69641,-0.22103 23.2823,1.93405 34.9787,1.87879c22.72971,-0.03684 45.47784,-0.09209 68.20755,0c13.5752,0.11052 27.02146,-2.30244 40.59666,-1.89721c24.82954,0.62627 47.94606,-9.94655 72.05723,-14.1462c13.04103,-2.04457 24.75586,-8.34405 37.07853,-12.7279c11.32801,-4.08914 21.75347,-10.22285 32.67626,-15.23296c10.186,-4.69698 18.18008,-13.04103 28.60554,-17.33279c14.4225,-5.91267 25.78735,-16.81703 37.44692,-26.80042c8.97031,-8.91506 19.35893,-16.30129 27.8135,-25.75052c8.19669,-9.02557 17.81169,-16.96439 24.11117,-27.57404c3.66549,-6.17055 2.48664,-13.86991 5.67322,-20.1694c5.6548,-6.37316 17.01965,0.29472 15.19612,8.21512c-1.82354,8.15985 -4.8996,16.00658 -6.52052,24.24011c27.70299,0.29471 55.53491,1.39988 83.14579,-1.54724c12.45161,-1.01308 25.80577,-1.08675 37.15221,-6.81523c9.87287,-10.79385 12.80158,-25.97155 15.23296,-39.95198c0.79204,-8.80454 1.95247,-19.56155 -4.71541,-26.46887c-8.04933,-5.17589 -17.77485,-6.70471 -26.56097,-10.18601c-6.06003,-2.00773 -14.53301,-5.15747 -19.32209,0.86572c-6.20739,8.32563 -6.72313,19.34052 -12.13848,28.12664c-4.69698,7.49675 -9.59658,15.21453 -16.54074,20.81407c-4.97328,3.205 -15.43558,2.56032 -15.98816,-4.75224c2.13666,-7.53359 8.47299,-12.74632 12.70948,-19.06422c7.80988,-10.44388 10.88595,-23.33755 14.05411,-35.7339c1.58408,-6.92575 5.87583,-12.80158 7.90198,-19.52471c0.53417,-10.2781 -1.87879,-20.48253 -1.47356,-30.77905c0.31313,-12.45161 -4.0523,-24.24011 -7.90199,-35.86284c-3.38919,-9.89129 -1.78669,-21.45876 -8.39931,-30.11594c-7.99407,-10.86753 -13.26206,-23.39281 -20.79565,-34.55505c-10.48072,-18.06957 -24.0375,-34.09457 -34.99712,-51.86942c-2.56032,-3.99704 -5.71006,-7.55201 -8.87822,-11.05172c-7.14678,-7.75463 -12.21215,-17.14859 -19.63523,-24.66376c-7.10994,-7.09152 -12.12005,-15.9329 -19.08264,-23.13494c-9.4308,-9.00716 -19.0458,-17.86695 -27.61089,-27.70299c-5.01011,-6.00476 -10.05706,-12.06479 -16.37496,-16.74335c-12.249,-9.1361 -22.69287,-20.46411 -35.36552,-29.01078c-8.80454,-5.80215 -16.31971,-13.31732 -25.08741,-19.13789c-10.60965,-7.33098 -22.28764,-13.02262 -32.36312,-21.10879c-6.02319,-4.86276 -13.22523,-7.77305 -20.02204,-11.27276c-14.79089,-8.25195 -29.89491,-16.08026 -45.55152,-22.50868c-14.56985,-4.21807 -27.15039,-13.40942 -41.9597,-16.94597c-13.85149,-3.3892 -26.78201,-9.7071 -40.70718,-12.93052c-9.72552,-2.24718 -19.43261,-4.58646 -28.86341,-7.86514c-12.04638,-4.18123 -24.7927,-5.43376 -37.39167,-6.79681c-32.28944,-4.7154 -65.1499,-7.18362 -97.69722,-3.61023z" fill="#bcbbc3" id="svg_4"/>
   <path d="m49.29745,548.54384c11.65957,-5.01011 24.68218,-6.06003 37.22589,-4.78908c9.76235,0.9394 17.94063,7.05468 25.29002,13.07787c5.69164,4.86276 11.82534,10.59124 12.59897,18.51164c1.80511,13.4831 2.19192,28.62396 -6.37316,40.06249c-5.47061,8.91506 -15.454,14.47776 -25.91629,14.55143c-12.56213,0.34998 -26.68991,1.01308 -37.18905,-7.14678c-6.61261,-5.23114 -13.64888,-9.89129 -20.90617,-14.16462c-3.09449,-2.00773 -7.55201,-4.99169 -5.78374,-9.30187c0,-2.68925 3.8681,-2.43137 5.45218,-1.27094c10.20443,5.45218 16.8723,16.06183 28.01612,20.07729c9.48606,3.57339 19.59839,7.05469 29.87649,5.96793c11.53063,-2.39454 23.35597,-10.60965 25.19793,-23.006c2.02615,-11.40169 2.33928,-24.25853 -3.75759,-34.49979c-7.31256,-9.11767 -19.02738,-13.86991 -30.2633,-15.85922c-15.43557,-1.41831 -31.47899,2.41295 -44.6858,10.49913c-11.34643,8.12302 -21.60611,18.16167 -29.01077,30.04227c-5.76531,8.82296 4.12598,21.25614 -5.19431,28.51344c-4.01546,-9.54132 -5.28641,-20.50094 -2.00773,-30.46591c3.31552,-9.72552 10.84911,-17.14859 18.08799,-24.1296c8.19669,-7.95724 19.02738,-12.19373 29.34232,-16.66968z" fill="#bcbbc3" id="svg_5"/>
   <path d="m463.07394,630.36343c6.18896,-3.55498 15.36189,1.3262 14.38566,8.84137c-0.90256,9.52291 -2.79977,19.00897 -5.43377,28.20032c-2.70767,7.55201 -15.49083,7.20204 -17.27752,-0.97624c-0.31313,-8.73086 1.74985,-17.38804 3.1129,-25.98997c0.90256,-3.62864 1.25253,-8.3993 5.21273,-10.07548z" fill="#bcbbc3" id="svg_6"/>
   <path d="m390.94303,669.5602c9.33871,-0.12894 18.93529,0.69994 27.75824,3.88652c3.24184,1.80512 8.56509,5.01012 6.46526,9.35713c-3.55497,10.0939 -8.91505,20.68514 -18.80635,25.84261c-2.79977,1.27095 -6.2258,3.61023 -9.13609,1.34462c-11.1254,-6.64945 -16.46706,-19.87468 -17.68275,-32.28944c-0.42365,-5.839 6.66787,-8.1046 11.40169,-8.14144m-0.23945,8.56509c-0.01842,5.43376 -0.03684,11.49379 3.94178,15.76712c2.54189,3.14974 6.61261,7.88356 10.95962,4.75224c5.28641,-4.45753 6.5942,-11.60431 7.29414,-18.12482c-7.27572,-1.86038 -14.77247,-1.97089 -22.19554,-2.39454z" fill="#bcbbc3" id="svg_7"/>
   <path d="m318.90422,796.48923c5.63638,-0.03684 9.15451,5.71006 10.72017,10.48072c3.33394,11.47537 3.16816,23.77962 7.66253,34.96028c7.10994,17.57224 16.025,34.53663 27.18724,49.84327c9.81761,9.15451 18.65899,19.46945 29.30548,27.68457c15.95132,10.90436 30.74221,23.44807 47.17243,33.67091c9.09926,5.43376 18.16167,11.23592 25.58474,18.89844c2.09983,2.30245 5.12063,5.69164 2.83661,8.93348c-2.74451,5.4706 -10.2781,6.57578 -15.30664,3.75759c-6.96258,-3.88653 -12.65422,-9.65184 -19.48787,-13.72256c-11.30959,-6.85207 -21.2193,-15.69344 -32.27102,-22.93232c-13.7594,-8.6756 -26.89253,-18.54848 -38.47842,-29.98701c-9.00715,-11.86218 -21.12721,-21.47718 -27.50037,-35.21815c-3.53655,-7.4415 -7.03626,-14.88299 -10.88594,-22.15871c-6.74155,-12.76474 -9.30187,-27.07672 -12.70948,-40.94663c-1.47357,-6.63103 -3.09449,-13.99885 0.38681,-20.29833c0.93939,-2.21034 3.62865,-2.81819 5.78373,-2.96554l0,-0.00001z" fill="#bcbbc3" id="svg_8"/>
   <path d="m549.07476,838.94627c5.59954,-0.71837 11.36485,2.09982 14.01727,7.12836c8.03092,13.77781 14.40408,28.86341 25.73209,40.39404c7.80988,8.8598 16.72494,16.85388 27.33459,22.23238c20.77724,12.58055 43.9306,20.53779 64.56048,33.37621c5.87583,3.22342 3.81285,14.56985 -3.22342,14.82772c-8.60192,0.57101 -16.11709,-4.4391 -23.20861,-8.60192c-8.32564,-5.15747 -18.06957,-7.33098 -26.54256,-12.19373c-17.84853,-10.48072 -37.5206,-19.45103 -50.85634,-35.88126c-14.49618,-16.09868 -27.59247,-34.70241 -31.07376,-56.54798c-0.25787,-2.17351 1.58408,-3.77601 3.26026,-4.73382z" fill="#bcbbc3" id="svg_9"/>
  </g>
 </g>
</svg>