<svg width="1043" height="1034" xmlns="http://www.w3.org/2000/svg"><g class="layer"><g fill="#bcbbc3"><path d="M214.3.839c12.654-1.142 27.629-2.634 37.65 6.926 9.467 7.92 10.517 21.348 9.43 32.805-1.124 13.115-10.904 22.95-18.77 32.658-7.773 9.854-18.437 17.37-30.41 21.127-17.278 4.881-37.19-4.292-44.944-20.409-5.747-11.144-9.854-24.093-6.484-36.6 2.837-11.143 9.597-23.374 21.717-26.026C193.45 8.87 203.193 2.589 214.3.839m13.502 9.504c-4.697 2.137-9.007 5.692-14.33 6.005-8.86.553-18.088-.534-26.524 2.874-11.163 3.868-20.649 14.514-20.04 26.818-.922 11.126 6.41 20.299 12.322 28.938 7.828 11.456 24.682 15.306 36.747 8.49 15.988-8.822 27.574-23.816 35.715-39.859 1.934-4.568 4.716-9.615 3.168-14.68-2.634-7.608-7.717-15.067-15.564-17.904-3.629-1.271-7.92-3.04-11.494-.682zM72.727 262.415c10.112-3.942 19.543 4.218 24.995 11.972 6.76 8.197 8.197 19.286 7.147 29.545-.59 11.42-8.325 20.575-14.975 29.232-13.594 13.944-35.679 15.86-53.453 9.91-13.152-3.887-22.214-15.51-27.759-27.482-4.697-9.965-4.2-22.674 2.855-31.387 5.692-6.17 14.091-8.473 21.533-11.77 12.544-5.857 26.819-5.01 39.657-10.02m-1.805 9.32c-14.754 6.17-31.995 4.034-45.625 13.299-7.294 3.352-10.573 11.641-9.394 19.304.423 12.378 9.228 22.398 19.064 28.937 9.983 6.668 22.84 5.378 33.892 2.615 8.823-2.155 14.901-9.578 20.556-16.172 8.731-10.647 7.423-25.88 2.653-37.963-2.966-8.123-12.82-14.164-21.146-10.02zM322.662 324.175c29.674-6.852 60.195-8.288 90.458-10.59 9.044-.72 17.94 1.804 26.966 1.436 16.08-1.087 32.014 1.934 47.983 3.352 17.333 2.432 35.071 3.5 51.74 9.247 19.433 7.33 40.45 9.302 59.533 17.775 19.561 5.986 37.63 15.675 56.953 22.287 14.993 7.516 30.042 14.975 44.52 23.448 7.239 3.703 14.846 6.963 20.906 12.544 6.723 6.023 15.27 9.265 22.73 14.22 18.272 13.502 36.563 27.022 53.582 42.144 7.7 7 16.302 13.17 22.73 21.496 7.497 9.725 17.977 16.522 25.861 25.916 6.078 7.294 13.299 13.52 19.617 20.63 16.67 19.653 32.529 39.952 48.277 60.342 4.697 7.036 7.663 15.233 13.63 21.44 7.184 7.552 10.629 17.554 16.228 26.193 8.97 14.404 18.088 29.177 22.417 45.754 3.205 12.304 10.057 23.448 11.807 36.176 2.155 15.804 5.065 31.884 2.431 47.836-.497 4.476-1.897 11.383 3.868 13.078 8.4 2.339 17.333 2.836 25.327 6.649 7.976 3.758 16.799 5.913 24.111 10.978 4.697 4.918 5.95 12.028 7.608 18.401 2.45 9.781 1.602 19.967-.166 29.785-2.063 11.254-3.04 23.208-9.302 33.118-5.876 9.357-14.33 18.235-25.64 20.353-17.406 3.28-35.09 5.01-52.735 6.503-7.865.515-15.675-1.124-23.54-.903-10.407.203-20.814.055-31.221-.24-8.418.572-10.002-10.112-13.797-15.674-10.61 8.325-17.72 20.058-27.85 28.863-8.197 7.147-14.993 15.786-23.65 22.435-7.258 5.6-13.76 12.138-21.275 17.406-23.338 15.989-46.307 33.21-73.163 42.955-14.054 4.586-26.653 13.04-41.333 15.712-12.525 2.155-24.535 6.41-36.802 9.56-28.993 7.312-59.072 6.299-88.635 8.878-16.578.257-33.174-.203-49.77.129-11.07.313-22.011-1.695-33.063-1.824-22.84-.037-45.496-3.408-68.152-5.876-12.562-1.29-24.922-3.942-37.134-7.036-15.527-3.997-31.902-4.31-46.951-10.223-17.554-7.184-35.974-12.028-53.012-20.5-13.777-4.348-25.234-13.355-38.404-18.991-13.889-6.908-24.94-18.107-38.11-26.12-10.242-5.396-17.628-14.514-26.893-21.237-10.591-7.81-17.83-19.009-26.93-28.348-5.912-5.95-11.364-12.36-15.656-19.58-4.678-7.81-13.41-14.275-12.12-24.387 3.573-.59 7.147-1.179 10.72-1.713 3.574-8.97-.994-18.051-2.431-26.93-3.868-18.861-.553-38.588 7.239-56.032 4.273-9.32 12.157-16.172 19.248-23.3 4.752-4.9 10.702-8.363 16.89-11.107 9.34-4.163 17.997-10.297 28.275-11.955 19.064-3.15 38.865-3.997 57.819.369 8.27 1.713 16.025 7.478 24.793 5.526-3.758-13.613-5.858-27.814-4.753-41.923.792-12.305-.018-25.309 5.895-36.563 5.36-10.536 10.02-21.514 16.67-31.35 6.114-9.1 15.343-15.436 22.14-23.927 2.597-3.131 1.215-7.755-1.566-10.241-5.36-5.471-11.494-10.518-14.312-17.886-15.012 5.12-31.332 4.034-46.767 1.676-13.962-2.542-28.182-3.978-41.85-7.902-8.84-2.413-15.914-8.473-22.877-14.09-7.404-6.116-15.085-12.526-19.248-21.386-4.144-8.694-9.21-17.406-9.707-27.242-.332-15.473-1.897-31.866 5.747-46.012 4.255-12.194 13.685-22.509 14.699-35.716-3.924-2.615-9.081-5.286-9.69-10.499.332-5.783 4.072-10.628 7.608-14.938 8.676-9.928 18.806-18.862 30.706-24.719 20.114-10.186 40.412-20.593 62.386-26.156 12.857-3.647 25.309-8.602 38.387-11.494m71.504 9.358c-15.95-.13-31.57 3.223-47.43 4.402-13.133 1.216-25.64 5.765-38.184 9.596-9.799 3.132-19.893 5.324-29.452 9.155-15.012 6.336-30.853 10.923-44.797 19.58-11.604 5.36-22.73 12.912-29.324 24.093-.036 6.87 10.002 10.26 8.99 17.627-2.874 10.757-11.66 18.64-15.381 29.066-3.887 10.757-9.818 21.514-8.492 33.34 1.087 12.727 3.721 25.99 11.531 36.47 10.647 14.699 28.31 22.859 45.865 25.695 12.562 1.842 25.142 4.31 37.889 4.108 6.06.166 12.193-.553 18.217.368 4.697.995 7.423 5.195 10.24 8.694 7.884-.976 16.228-1.031 23.707 1.916 1.952-10.167 4.55-20.482 10.278-29.232 6.889-11.346 19.47-17.517 26.671-28.624 7.387-11.53 18.475-19.69 28.882-28.274 10.536-9.283 22.656-16.485 33.855-24.884 22.804-14.644 46.307-29.122 72.776-36.103 13.999-3.426 27.15-9.67 41.37-12.267 18.604-3.555 37.41-7.442 56.456-6.152.847 3.039 1.934 6.097 2.1 9.32-3.095 6.392-10.702 8.27-17.13 9.118-14.773 1.842-29.693 3.334-43.968 7.791-8.933 2.892-17.885 5.673-27.058 7.755-11.789 2.505-22.177 8.878-33.542 12.69-9.56 3.077-16.964 10.242-26.064 14.258-14.275 6.262-26.082 16.688-38.11 26.34-23.337 17.424-45.128 37.446-61.595 61.613-3.683 6.391-3.978 14.017-6.98 20.667-1.953 3.407-6.19 3.997-9.45 5.489 3.555 10.204 13.483 16.061 23.154 19.506 13.243 4.605 25.768 11.733 39.915 13.244 15.14 2.652 30.613 2.56 45.81.35 17.221-1.18 33.67-6.853 50.782-8.731 2.357 3.407 4.2 9.817 9.56 8.491 5.507-2.763 9.357-7.847 14.256-11.494 11.347-8.675 24.038-15.343 36.158-22.877 9.21-6.097 19.598-9.965 29.453-14.846 26.413-14.533 56.474-20.317 86.037-24.48 24.903-4.9 50.562-1.602 75.3 2.782 8.804 1.823 17.922 3.113 26.118 7.036 6.226 2.634 7.147 12.525 1.4 16.19-4.255 1.824-8.989.406-13.299-.35-17.83-4.328-35.623-10-54.135-10.056-19.93-1.308-39.657 2.56-58.887 7.33-20.17 5.121-40.947 9.468-59.237 19.82a379.489 379.489 0 0 0-28.9 15.288c-10.813 5.453-19.47 14.165-30.098 19.93-7.276 4.992-15.362 12.268-15.749 21.625 8.05 14.993 20.925 26.763 33.137 38.386 8.326 8.197 19.23 12.728 28.9 19.01 10.591 7.11 23.448 9.209 34.813 14.735 13.594 6.465 29.048 5.544 43.58 8.178 6.742 1.787 10.629-4.881 14.497-9.062 13.925-15.712 33.67-23.909 52.164-32.787 12.894-5.452 27.077-6.079 40.818-7.478 13.649-1.363 27.371-1.456 41.039-2.69 8.86-2.007 16.006 14.147 6.17 17.315-29.95 5.526-62.718-.977-90.33 14.625-10.867 6.3-26.67 9.117-30.981 22.582 6.336.645 13.023.976 18.622 4.347 6.429 3.96 10.702 10.334 15.933 15.62 3.61 3.665 8.805 4.918 13.428 6.852 10.48 3.74 19.875 10.039 30.576 13.244 8.455 2.505 16.983 4.77 25.198 8.012 14.938 5.82 31.166 5.876 46.749 8.768 11.033 2.192 22.324 2.137 33.487 3.352 20.243 2.118 40.1-3.628 60.066-5.673 6.907-1.566 12.801 7.331 7.644 12.673-7.792 9.099-21.754 4.089-30.798 10.075-3.076 15.03 3.666 30.116 1.456 45.238-.83 3.942-3.758 6.981-6.042 10.15-2.837-2.598-7.57-4.458-7.607-8.915-1.16-13.262.7-27.188-4.329-39.823-1.713-4.071-6.686-3.555-10.278-3.813-16.78-.037-33.358-2.947-49.843-5.766-8.768-1.492-17.683-4.402-26.598-2.32 1.97 5.25 2.966 11.64 7.92 15.085 11.586 7.976 26.47 9.228 38 17.351 5.82 3.924 9.375 10.113 13.41 15.675-2.874 1.695-5.324 3.979-7 6.87-9.173-5.322-17.443-12.34-27.316-16.319-7.515-3.592-12.728 6.484-20.078 5.49-9.615-1.217-18.695-5.066-27.058-9.837-12.378-7.423-27.04-8.804-40.725-12.544-26.433-6.815-54.025-7.717-81.12-5.673-20.354 3.758-42.42 7.92-57.745 23.025-6.724 5.58-9.965 15.859-19.175 17.885-5.434 1.602-9.284-3.39-12.23-7.073-8.437-11.77-20.502-20.059-31-29.784-13.208-9.892-26.304-20.612-42.182-25.917-15.398-7.644-32.473-10.112-49.124-13.501-14.902-3.279-30.264-2.137-45.405-2.137-13.096.037-25.787 3.758-38.257 7.405-8.252 2.45-15.675 7.183-21.624 13.372-3.942 3.61-7.129 8.344-12.065 10.647-5.12.7-9.302-4.642-8.565-9.486-.203-8.823 7.552-14.35 13.593-19.433 15.657-13.704 37.116-16.393 56.677-20.722 21.127-1.879 42.88-2.247 63.603 3.04 17.314 4.144 35.42 6.41 51.298 15.03 16.173 6.741 30.374 17.111 44.207 27.703 9.91 8.049 17.628 18.456 28.108 25.86 5.268-3.37 10.444-6.888 15.16-11.014 8.178-7.386 18.695-11.218 28.568-15.749 14.091-6.336 29.785-6.834 44.907-8.344 17.388-2.247 34.758 1.179 52.072 2.376 12.028.737 24.02 2.782 35.31 7.11 11.07 4.145 23.062 2.818 34.61 2.395-3.849-6.926-9.706-12.434-16.024-17.075-6.208-4.531-13.944-5.858-21.054-8.344-8.841-2.837-16.651-8.031-25.308-11.273-6.852-2.726-14.257-4.918-19.635-10.204-4.863-4.33-8.179-10.205-13.502-13.98-8.086-1.198-16.32-.259-24.406-1.42-19.322-2.467-38.68-4.751-57.8-8.454-9.431-1.676-17.628-6.889-26.506-10.13-22.306-6.687-40.707-21.588-59.072-35.292-5.102-4.163-8.767-9.69-13.022-14.625-6.152-7.46-13.225-14.386-17.664-23.099-3.813-7.81-4.016-16.688-4.071-25.198-29.306 6.005-59.311 10.942-89.335 8.418-6.723-.57-13.28-2.615-20.04-2.744-2.69-.442-3.298 2.615-4.218 4.402-3.132 7.091-4.68 15.51-10.886 20.722-4.845 3.702-11.218-1.4-13.152-6.023-.7-9.486 5.526-17.554 10.757-24.848-10.112-3.021-17.646-13.465-28.845-12.268-5.065.11-8.05 4.753-10.904 8.27-4.55 6.41-9.357 12.637-14.478 18.586-7.994 9.044-11.089 20.962-15.86 31.774-5.636 12.415-4.752 26.321-4.512 39.602.24 14.422 6.576 27.74 12.71 40.504 4.217 9.32 14.624 12.912 21.256 20.17-3.98 7.81-8.805 16.614-17.941 19.027-6.207 1.363-11.07-4.07-13.152-9.265-3.684-6.852-5.268-16.651-13.76-19.156-18.658-6.742-37.76-15.749-58.131-13.391-10.628 1.529-22.03.313-31.83 5.452-7.256 3.813-14.606 7.423-21.863 11.217-8.344 4.237-13.41 12.434-18.677 19.801-10.002 15.252-10.96 34.537-7.331 51.98.644 10.057 6.262 18.641 8.915 28.127-1.971 3.702-5.158 6.576-7.276 10.204-1.308 4.624 2.984 8.197 5.397 11.623 5.655 6.244 9.265 13.962 14.57 20.446 9.854 9.91 20.795 18.714 32.344 26.56 13.097 8.916 25.033 19.489 38.7 27.593 10.499 7.018 22.195 11.918 33.137 18.217 4.88 2.782 10.167 4.752 15.49 6.558 10.868 3.518 20.317 10.499 31.608 12.893 15.896 3.74 30.687 11.365 46.952 13.704 12.212 1.971 24.406 4.126 36.673 5.931 20.354 3.169 40.523 9.081 61.3 8.216 11.697-.221 23.283 1.934 34.979 1.878 22.73-.036 45.478-.092 68.207 0 13.576.11 27.022-2.302 40.597-1.897 24.83.626 47.946-9.946 72.057-14.146 13.041-2.045 24.756-8.344 37.079-12.728 11.328-4.09 21.753-10.223 32.676-15.233 10.186-4.697 18.18-13.04 28.606-17.333 14.422-5.912 25.787-16.817 37.447-26.8 8.97-8.915 19.359-16.301 27.813-25.75 8.197-9.026 17.812-16.965 24.111-27.575 3.666-6.17 2.487-13.87 5.674-20.17 5.654-6.372 17.02.296 15.196 8.216-1.824 8.16-4.9 16.007-6.52 24.24 27.702.295 55.534 1.4 83.145-1.547 12.452-1.013 25.806-1.087 37.152-6.815 9.873-10.794 12.802-25.972 15.233-39.952.792-8.805 1.953-19.562-4.715-26.47-8.05-5.175-17.775-6.704-26.561-10.185-6.06-2.008-14.533-5.158-19.322.866-6.208 8.325-6.724 19.34-12.139 28.126-4.697 7.497-9.596 15.215-16.54 20.814-4.974 3.205-15.436 2.56-15.989-4.752 2.137-7.534 8.473-12.746 12.71-19.064 7.81-10.444 10.886-23.338 14.054-35.734 1.584-6.926 5.876-12.802 7.902-19.525.534-10.278-1.879-20.482-1.474-30.779.313-12.451-4.052-24.24-7.902-35.863-3.389-9.891-1.786-21.458-8.4-30.116-7.993-10.867-13.261-23.392-20.795-34.555-10.48-18.07-24.037-34.094-34.997-51.87-2.56-3.996-5.71-7.551-8.878-11.05-7.147-7.755-12.212-17.15-19.635-24.665-7.11-7.091-12.12-15.932-19.083-23.135-9.43-9.007-19.046-17.866-27.61-27.703-5.01-6.004-10.058-12.064-16.376-16.743-12.249-9.136-22.693-20.464-35.365-29.01-8.805-5.803-16.32-13.318-25.088-19.139-10.61-7.33-22.287-13.022-32.363-21.108-6.023-4.863-13.225-7.773-20.022-11.273-14.79-8.252-29.895-16.08-45.551-22.509-14.57-4.218-27.15-13.41-41.96-16.946-13.852-3.389-26.782-9.707-40.707-12.93-9.726-2.247-19.433-4.587-28.864-7.865-12.046-4.182-24.792-5.434-37.391-6.797-32.29-4.716-65.15-7.184-97.698-3.61zM49.297 548.544c11.66-5.01 24.683-6.06 37.226-4.79 9.763.94 17.941 7.055 25.29 13.079 5.692 4.862 11.826 10.59 12.6 18.511 1.804 13.483 2.191 28.624-6.374 40.063-5.47 8.915-15.454 14.478-25.916 14.551-12.562.35-26.69 1.013-37.19-7.147-6.612-5.23-13.648-9.89-20.905-14.164-3.095-2.008-7.552-4.992-5.784-9.302 0-2.69 3.868-2.431 5.452-1.271 10.205 5.452 16.872 16.062 28.016 20.077 9.486 3.574 19.599 7.055 29.877 5.968 11.53-2.394 23.356-10.61 25.198-23.006 2.026-11.401 2.339-24.258-3.758-34.5-7.313-9.117-19.027-13.87-30.263-15.859-15.436-1.418-31.48 2.413-44.686 10.5-11.346 8.122-21.606 18.161-29.01 30.042-5.766 8.823 4.125 21.256-5.195 28.513-4.016-9.541-5.287-20.5-2.008-30.466 3.316-9.725 10.85-17.148 18.088-24.13 8.197-7.957 19.028-12.193 29.342-16.67z"/><path d="M463.074 630.363c6.189-3.555 15.362 1.327 14.386 8.842-.903 9.523-2.8 19.009-5.434 28.2-2.708 7.552-15.491 7.202-17.278-.976-.313-8.731 1.75-17.388 3.113-25.99.903-3.629 1.253-8.4 5.213-10.076zM390.943 669.56c9.339-.129 18.935.7 27.758 3.887 3.242 1.805 8.565 5.01 6.466 9.357-3.555 10.094-8.916 20.685-18.807 25.842-2.8 1.271-6.226 3.61-9.136 1.345-11.125-6.65-16.467-19.875-17.683-32.29-.423-5.838 6.668-8.104 11.402-8.14m-.24 8.564c-.018 5.434-.036 11.494 3.942 15.767 2.542 3.15 6.613 7.884 10.96 4.753 5.286-4.458 6.594-11.605 7.294-18.125-7.276-1.86-14.772-1.971-22.195-2.395zM318.904 796.49c5.637-.038 9.155 5.71 10.72 10.48 3.334 11.475 3.169 23.78 7.663 34.96 7.11 17.572 16.025 34.537 27.187 49.844 9.818 9.154 18.66 19.469 29.306 27.684 15.951 10.904 30.742 23.448 47.172 33.671 9.1 5.434 18.162 11.236 25.585 18.898 2.1 2.303 5.12 5.692 2.836 8.934-2.744 5.47-10.278 6.576-15.306 3.757-6.963-3.886-12.654-9.651-19.488-13.722-11.31-6.852-21.22-15.694-32.271-22.932-13.76-8.676-26.893-18.549-38.479-29.987-9.007-11.863-21.127-21.478-27.5-35.219-3.536-7.441-7.036-14.883-10.886-22.158-6.741-12.765-9.302-27.077-12.71-40.947-1.473-6.63-3.094-13.999.387-20.298.94-2.21 3.63-2.818 5.784-2.966zM549.075 838.946c5.6-.718 11.365 2.1 14.017 7.129 8.031 13.777 14.404 28.863 25.732 40.394 7.81 8.86 16.725 16.854 27.335 22.232 20.777 12.58 43.93 20.538 64.56 33.376 5.876 3.224 3.813 14.57-3.223 14.828-8.602.571-16.117-4.44-23.209-8.602-8.325-5.157-18.07-7.33-26.542-12.194-17.849-10.48-37.521-19.45-50.857-35.88-14.496-16.1-27.592-34.703-31.074-56.549-.257-2.173 1.585-3.776 3.26-4.734z"/></g></g></svg>