<?xml version="1.0"?>
<svg width="1061" height="1061" xmlns="http://www.w3.org/2000/svg" xmlns:svg="http://www.w3.org/2000/svg" version="1.1">
 <g class="layer">
  <title>Layer 1</title>
  <g id="svg_1">
   <path d="m488.922046,721.75789c6.47891,-0.83119 13.14961,2.42958 16.21857,8.24781c9.29211,15.9415 16.66612,33.39617 29.7731,46.73759c9.03636,10.25116 19.35146,19.50064 31.62727,25.72379c24.04013,14.55622 50.82954,23.76308 74.69917,38.61767c6.79858,3.72963 4.41163,16.85793 -3.72963,17.15629c-9.95278,0.66069 -18.64815,-5.13622 -26.85333,-9.95278c-9.63312,-5.96741 -20.90725,-8.48225 -30.71086,-14.10865c-20.65149,-12.12663 -43.4129,-22.50566 -58.84291,-41.51612c-16.77268,-18.62684 -31.92564,-40.15214 -35.95364,-65.42838c-0.29836,-2.51484 1.83285,-4.369 3.77226,-5.47722z" fill="#000000" id="svg_9"/>
   <path d="m222.605116,672.63332c6.52153,-0.04263 10.59215,6.60678 12.40369,12.12663c3.8575,13.27748 3.66569,27.51401 8.86586,40.4505c8.2265,20.33182 18.5416,39.96033 31.45678,57.67075c11.35938,10.59215 21.58923,22.52697 33.90766,32.0322c18.45634,12.6168 35.57002,27.1304 54.58047,38.95865c10.52823,6.28709 21.01381,13.00043 29.60262,21.86629c2.42959,2.66403 5.92478,6.58546 3.28207,10.33641c-3.17551,6.32971 -11.89219,7.60845 -17.71042,4.34769c-8.056,-4.49688 -14.64146,-11.16758 -22.54828,-15.87758c-13.08567,-7.92813 -24.55162,-18.15796 -37.33892,-26.53365c-15.9202,-10.03803 -31.11578,-21.46137 -44.52114,-34.69622c-10.42165,-13.72504 -24.44506,-24.85 -31.81908,-40.74888c-4.09193,-8.61012 -8.14124,-17.22024 -12.59548,-25.63855c-7.80026,-14.76934 -10.76265,-31.3289 -14.7054,-47.37696c-1.70498,-7.67238 -3.58046,-16.19725 0.44755,-23.48602c1.08692,-2.55745 4.1985,-3.26076 6.69202,-3.43125l0,-0.00001z" fill="#000000" id="svg_8"/>
   <path d="m305.957026,525.77113c10.80528,-0.14919 21.90893,0.80986 32.11745,4.49686c3.75094,2.0886 9.91016,5.79692 7.48057,10.82659c-4.11325,11.67907 -10.31508,23.93357 -21.75973,29.90098c-3.23945,1.47054 -7.20351,4.17719 -10.57084,1.55578c-12.87255,-7.69369 -19.05307,-22.99583 -20.45968,-37.36023c-0.49018,-6.75596 7.71501,-9.37736 13.19223,-9.41998m-0.27705,9.91016c-0.02131,6.28709 -0.04263,13.2988 4.5608,18.24322c2.94108,3.64438 7.65107,9.12161 12.68074,5.49854c6.1166,-5.15755 7.62977,-13.42667 8.43963,-20.97117c-8.41832,-2.15254 -17.09237,-2.28041 -25.68117,-2.77059z" fill="#000000" id="svg_7"/>
   <path d="m389.415506,480.41883c7.16089,-4.11326 17.77435,1.53446 16.64481,10.22983c-1.0443,11.0184 -3.23945,21.99417 -6.2871,32.62895c-3.13288,8.73799 -17.92354,8.33306 -19.99081,-1.12955c-0.3623,-10.10197 2.02465,-20.11869 3.60175,-30.07148c1.0443,-4.19849 1.44923,-9.71834 6.03135,-11.65775z" fill="#000000" id="svg_6"/>
   <path d="m226.952806,126.14655c34.33391,-7.92813 69.64818,-9.59049 104.66408,-12.25451c10.46428,-0.83117 20.75806,2.0886 31.20103,1.66236c18.60552,-1.25743 37.04055,2.23778 55.51821,3.87881c20.05476,2.81321 40.57838,4.04932 59.8659,10.69871c22.48434,8.48225 46.80154,10.76265 68.88095,20.56626c22.63353,6.92645 43.54077,18.13665 65.89724,25.78773c17.34811,8.69536 34.76015,17.32679 51.51153,27.1304c8.37569,4.28373 17.1776,8.05599 24.18931,14.51358c7.77894,6.96908 17.6678,10.72003 26.29922,16.453c21.14168,15.62183 42.30467,31.26495 61.99713,48.76225c8.90848,8.09863 18.86127,15.2382 26.29921,24.87132c8.67406,11.25282 20.80068,19.11701 29.92229,29.98622c7.03302,8.43962 15.3874,15.64313 22.69747,23.86964c19.28752,22.74009 37.6373,46.2261 55.85921,69.81868c5.4346,8.14125 8.86587,17.62517 15.77101,24.80737c8.31175,8.73799 12.29712,20.3105 18.77603,30.30591c10.37902,16.66612 20.92855,33.75849 25.93692,52.93944c3.7083,14.23653 11.63644,27.1304 13.6611,41.85711c2.49351,18.28585 5.86084,36.89137 2.81321,55.34772c-0.57544,5.17886 -2.19516,13.17093 4.47555,15.13164c9.71835,2.70664 20.05476,3.28208 29.30423,7.6937c9.22818,4.34768 19.43671,6.84121 27.89765,12.70205c5.4346,5.69036 6.88383,13.91686 8.80193,21.29087c2.83452,11.31676 1.85415,23.1024 -0.19182,34.46178c-2.38697,13.02174 -3.5165,26.85335 -10.76264,38.31929c-6.79859,10.82658 -16.58087,21.09905 -29.66655,23.54996c-20.14,3.79357 -40.5997,5.79691 -61.01676,7.52319c-9.1003,0.59674 -18.13666,-1.30004 -27.23695,-1.04429c-12.04138,0.23443 -24.08276,0.06394 -36.12414,-0.27706c-9.73967,0.66068 -11.57251,-11.70038 -15.96282,-18.13666c-12.27582,9.6331 -20.50231,23.20895 -32.224,33.39617c-9.48393,8.26913 -17.34812,18.26454 -27.36484,25.95824c-8.397,6.4789 -15.92019,14.04471 -24.61557,20.14c-27.00252,18.49897 -53.5788,38.42585 -84.65195,49.69999c-16.26118,5.30674 -30.83872,15.08903 -47.82452,18.17929c-14.49227,2.49352 -28.38781,7.41664 -42.58173,11.06102c-33.54536,8.46092 -68.34814,7.28876 -102.55418,10.27246c-19.18095,0.29838 -38.38323,-0.23443 -57.58549,0.14919c-12.80862,0.3623 -25.46806,-1.96073 -38.25536,-2.1099c-26.42709,-0.04263 -52.64107,-3.94276 -78.85504,-6.79858c-14.5349,-1.49186 -28.83537,-4.56082 -42.96534,-8.14126c-17.96616,-4.62474 -36.91269,-4.98705 -54.32473,-11.82826c-20.3105,-8.31174 -41.62268,-13.91685 -61.33644,-23.72045c-15.94151,-5.02967 -29.19768,-15.45132 -44.43589,-21.97285c-16.06938,-7.99206 -28.85668,-20.94986 -44.09489,-30.22066c-11.84956,-6.24447 -20.39575,-16.794 -31.11577,-24.57294c-12.2545,-9.03636 -20.63019,-21.99416 -31.1584,-32.79944c-6.84121,-6.88383 -13.14961,-14.30047 -18.11535,-22.65484c-5.41329,-9.03636 -15.51526,-16.51694 -14.02341,-28.21731c4.13456,-0.682 8.26913,-1.36398 12.40369,-1.98204c4.13456,-10.37902 -1.15087,-20.88593 -2.81321,-31.15839c-4.47555,-21.82367 -0.63937,-44.64901 8.37569,-64.83165c4.94442,-10.78395 14.06603,-18.71208 22.27121,-26.95989c5.49855,-5.66904 12.38239,-9.67573 19.54327,-12.85124c10.80528,-4.81656 20.822,-11.9135 32.71419,-13.8316c22.0581,-3.64438 44.96868,-4.62474 66.89892,0.42624c9.56916,1.98204 18.54159,8.65274 28.68619,6.39365c-4.34769,-15.7497 -6.77728,-32.18138 -5.49856,-48.50651c0.91643,-14.23653 -0.02131,-29.28292 6.81991,-42.30466c6.20184,-12.19056 11.59381,-24.89262 19.28752,-36.27332c7.07563,-10.52821 17.75303,-17.8596 25.61723,-27.68452c3.00502,-3.62307 1.4066,-8.97243 -1.81154,-11.84956c-6.20184,-6.32973 -13.29879,-12.16926 -16.55956,-20.69414c-17.36942,5.9248 -36.252,4.66737 -54.1116,1.93941c-16.15463,-2.94107 -32.60764,-4.60343 -48.42126,-9.14292c-10.22985,-2.79189 -18.41372,-9.8036 -26.46973,-16.30382c-8.56749,-7.07563 -17.45467,-14.49227 -22.27122,-24.74343c-4.79524,-10.05934 -10.65608,-20.14 -11.23152,-31.5207c-0.38361,-17.90223 -2.19515,-36.87006 6.64941,-53.23781c4.92311,-14.10866 15.83494,-26.04348 17.00711,-41.32431c-4.53949,-3.02633 -10.50691,-6.11659 -11.21021,-12.14794c0.38362,-6.69202 4.71,-12.29712 8.80193,-17.28417c10.03803,-11.48726 21.75974,-21.82367 35.5274,-28.60094c23.27289,-11.78564 46.7589,-23.82701 72.18433,-30.26328c14.8759,-4.21981 29.28292,-9.95279 44.41458,-13.29881m82.73385,10.82659c-18.45634,-0.14919 -36.52907,3.72963 -54.87885,5.09361c-15.19558,1.40661 -29.66654,6.67071 -44.18014,11.10365c-11.33807,3.62306 -23.01714,6.15921 -34.07816,10.59215c-17.36942,7.33138 -35.69789,12.63811 -51.83121,22.65484c-13.42667,6.20184 -26.29922,14.93983 -33.92898,27.87632c-0.04263,7.94944 11.57251,11.87088 10.40034,20.39575c-3.3247,12.44631 -13.49061,21.56792 -17.79567,33.63061c-4.49687,12.44631 -11.35938,24.89262 -9.8249,38.57504c1.25741,14.72671 4.30505,30.07148 13.34142,42.1981c12.31843,17.00712 32.7568,26.44841 53.0673,29.73049c14.53491,2.13121 29.09112,4.98704 43.83915,4.75262c7.0117,0.1918 14.10866,-0.63937 21.07773,0.42624c5.43462,1.15085 8.58882,6.01003 11.84958,10.05934c9.12161,-1.12955 18.77602,-1.19347 27.42876,2.21647c2.25909,-11.76432 5.26412,-23.69913 11.8922,-33.82242c7.97075,-13.1283 22.52696,-20.26787 30.86002,-33.11913c8.54619,-13.34142 21.37612,-22.7827 33.4175,-32.71418c12.19056,-10.74133 26.21397,-19.07439 39.17178,-28.79275c26.38447,-16.94317 53.57881,-33.69454 84.2044,-41.77185c16.19725,-3.96407 31.41414,-11.1889 47.86714,-14.19392c21.52529,-4.11325 43.28502,-8.61012 65.32181,-7.11826c0.98036,3.5165 2.23778,7.05433 2.42959,10.78396c-3.58044,7.39532 -12.38237,9.56917 -19.82032,10.54953c-17.09237,2.13121 -34.35522,3.85749 -50.87217,9.01504c-10.3364,3.34602 -20.69412,6.56416 -31.30758,8.97243c-13.63979,2.89845 -25.65986,10.27246 -38.80946,14.68409c-11.06102,3.55913 -19.62852,11.84957 -30.15673,16.49562c-16.51694,7.24614 -30.17804,19.30883 -44.09489,30.47641c-27.00252,20.16132 -52.21483,43.32766 -71.26791,71.28923c-4.26244,7.39532 -4.60343,16.21856 -8.07732,23.91225c-2.25909,3.94275 -7.16088,4.62475 -10.93314,6.35103c4.11325,11.80695 15.60051,18.58422 26.7894,22.56959c15.32345,5.32805 29.81573,13.57586 46.18348,15.32346c17.51861,3.06895 35.42083,2.96239 53.00338,0.40493c19.92688,-1.36398 38.95866,-7.92813 58.75767,-10.10197c2.72795,3.94275 4.85917,11.35938 11.06102,9.82491c6.37233,-3.19683 10.82658,-9.07899 16.49562,-13.2988c13.12829,-10.03803 27.81238,-17.75304 41.83579,-26.46972c10.65609,-7.05433 22.67616,-11.52988 34.07817,-17.17761c30.56166,-16.8153 65.34313,-23.50733 99.54917,-28.32388c28.81405,-5.66904 58.50192,-1.85416 87.12417,3.21814c10.18722,2.1099 20.73675,3.60176 30.22066,8.14125c7.20352,3.04764 8.26912,14.49228 1.61973,18.7334c-4.92312,2.10991 -10.40035,0.46886 -15.38739,-0.40493c-20.63019,-5.00836 -41.21774,-11.57252 -62.63649,-11.63644c-23.05977,-1.51317 -45.8851,2.96238 -68.13502,8.48224c-23.33682,5.92478 -47.37696,10.95445 -68.53995,22.93189c-11.40201,5.4133 -22.54828,11.31677 -33.43881,17.68911c-12.51023,6.3084 -22.52696,16.38906 -34.82408,23.05978c-8.41832,5.77559 -17.77435,14.1939 -18.22191,25.02049c9.31341,17.34811 24.21063,30.96658 38.34059,44.41457c9.63312,9.48392 22.24992,14.72671 33.43881,21.99416c12.2545,8.22651 27.1304,10.65609 40.28001,17.04974c15.72838,7.48057 33.6093,6.41497 50.42461,9.46261c7.80025,2.06727 12.29712,-5.64773 16.77268,-10.48559c16.11201,-18.17929 38.95865,-27.6632 60.35608,-37.93567c14.91852,-6.3084 31.3289,-7.03302 47.22777,-8.65274c15.79233,-1.57711 31.66989,-1.68366 47.48353,-3.11158c10.25116,-2.32303 18.52028,16.36775 7.13957,20.03344c-34.65358,6.39365 -72.56795,-1.12954 -104.5149,16.92188c-12.57417,7.28876 -30.86003,10.54952 -35.84707,26.12872c7.33138,0.74592 15.0677,1.12954 21.5466,5.02967c7.43795,4.58212 12.38237,11.95613 18.43503,18.07273c4.17719,4.24112 10.18722,5.69034 15.53659,7.92813c12.12662,4.32636 22.99583,11.61512 35.3782,15.32344c9.78229,2.89846 19.64982,5.51986 29.15506,9.2708c17.28417,6.73465 36.06019,6.79858 54.09029,10.1446c12.76599,2.53615 25.83036,2.47221 38.74554,3.87882c23.42208,2.45089 46.3966,-4.1985 69.499,-6.56416c7.99207,-1.81153 14.81196,8.48225 8.84455,14.66278c-9.01504,10.52821 -25.16967,4.7313 -35.63396,11.65776c-3.55913,17.39073 4.24113,34.8454 1.68367,52.3427c-0.95905,4.5608 -4.34769,8.07732 -6.99039,11.74301c-3.28208,-3.00502 -8.75931,-5.15755 -8.80193,-10.3151c-1.34267,-15.34475 0.80986,-31.45676 -5.00836,-46.07692c-1.98204,-4.70999 -7.73632,-4.11325 -11.89219,-4.41161c-19.4154,-0.04263 -38.59636,-3.40996 -57.67075,-6.67072c-10.1446,-1.72628 -20.45969,-5.09361 -30.77478,-2.68533c2.2804,6.07397 3.43126,13.4693 9.16424,17.45467c13.40535,9.22817 30.62558,10.6774 43.967,20.07607c6.73466,4.5395 10.84791,11.70038 15.51528,18.13666c-3.32471,1.96072 -6.15923,4.60343 -8.09864,7.94944c-10.61346,-6.15922 -20.18262,-14.27916 -31.60595,-18.88258c-8.69536,-4.15588 -14.72671,7.50188 -23.23027,6.35102c-11.12496,-1.4066 -21.63186,-5.86084 -31.30759,-11.3807c-14.32178,-8.58881 -31.28627,-10.18722 -47.12122,-14.51359c-30.58296,-7.88551 -62.5086,-8.9298 -93.85881,-6.56414c-23.54995,4.34767 -49.08193,9.16423 -66.81367,26.64021c-7.77894,6.45759 -11.52988,18.34978 -22.18596,20.69412c-6.2871,1.85416 -10.74134,-3.92144 -14.15129,-8.18387c-9.76098,-13.61849 -23.72045,-23.20896 -35.86839,-34.46178c-15.28083,-11.44465 -30.43379,-23.84834 -48.80488,-29.98624c-17.81697,-8.84455 -37.57336,-11.70038 -56.83956,-15.62182c-17.24156,-3.79357 -35.01591,-2.47221 -52.53451,-2.47221c-15.15296,0.04262 -29.83706,4.34768 -44.26539,8.56748c-9.54786,2.83453 -18.13666,8.31175 -25.0205,15.47265c-4.5608,4.17719 -8.24781,9.65441 -13.95947,12.31843c-5.92479,0.80986 -10.76264,-5.37066 -9.91016,-10.97576c-0.23444,-10.20854 8.73799,-16.60219 15.72839,-22.48435c18.11534,-15.85626 42.94403,-18.96783 65.57755,-23.97619c24.44507,-2.17385 49.61475,-2.6001 73.59095,3.5165c20.03344,4.79525 40.98331,7.41664 59.3544,17.39073c18.71209,7.80026 35.14377,19.79901 51.14922,32.05352c11.46595,9.31342 20.39574,21.35479 32.52237,29.92229c6.09529,-3.90013 12.08401,-7.97076 17.53992,-12.74469c9.4626,-8.54617 21.63186,-12.9791 33.05518,-18.2219c16.30382,-7.33139 34.46179,-7.90682 51.95908,-9.65442c20.1187,-2.60008 40.21608,1.36398 60.24953,2.74927c13.91684,0.85249 27.79107,3.21814 40.85543,8.2265c12.80862,4.79525 26.68285,3.26077 40.04558,2.77059c-4.45424,-8.01338 -11.23152,-14.38572 -18.5416,-19.75639c-7.18219,-5.2428 -16.13331,-6.77727 -24.35981,-9.65441c-10.22985,-3.28208 -19.2662,-9.29211 -29.28292,-13.04306c-7.92813,-3.1542 -16.49562,-5.69034 -22.71878,-11.80694c-5.62642,-5.00836 -9.4626,-11.80694 -15.62183,-16.17594c-9.35605,-1.38529 -18.88258,-0.29837 -28.23863,-1.64103c-22.35647,-2.85584 -44.75557,-5.49854 -66.87761,-9.78229c-10.91183,-1.93941 -20.39574,-7.97076 -30.66821,-11.7217c-25.80905,-7.73632 -47.09991,-24.97787 -68.34815,-40.83413c-5.90347,-4.81655 -10.14459,-11.2102 -15.0677,-16.92186c-7.11826,-8.63144 -15.30215,-16.64481 -20.43837,-26.72547c-4.41163,-9.03636 -4.64606,-19.30884 -4.70999,-29.15505c-33.90768,6.94777 -68.62521,12.65942 -103.36405,9.73966c-7.77895,-0.66068 -15.36607,-3.02633 -23.18765,-3.17551c-3.11158,-0.51149 -3.81488,3.02632 -4.88049,5.09361c-3.62307,8.20518 -5.41329,17.94485 -12.5955,23.97618c-5.60509,4.28375 -12.9791,-1.61972 -15.21689,-6.96907c-0.80986,-10.97578 6.39365,-20.3105 12.44631,-28.75013c-11.70038,-3.49519 -20.41705,-15.57919 -33.37486,-14.1939c-5.86084,0.12786 -9.31342,5.49854 -12.61681,9.56916c-5.2641,7.41664 -10.82658,14.62015 -16.75136,21.50398c-9.24949,10.46429 -12.82993,24.25326 -18.34979,36.7635c-6.52152,14.36441 -5.49854,30.4551 -5.22148,45.82118c0.27705,16.68744 7.60844,32.09613 14.7054,46.86547c4.88048,10.78397 16.92186,14.93984 24.59424,23.33684c-4.60343,9.03636 -10.18721,19.22358 -20.75805,22.01547c-7.18221,1.5771 -12.80862,-4.70999 -15.21689,-10.72002c-4.26244,-7.92813 -6.09528,-19.26621 -15.9202,-22.16467c-21.58923,-7.80025 -43.68996,-18.2219 -67.26122,-15.49394c-12.29712,1.76891 -25.48937,0.3623 -36.82744,6.3084c-8.397,4.41161 -16.90055,8.5888 -25.29755,12.97911c-9.65441,4.9018 -15.51526,14.38572 -21.61054,22.91059c-11.57252,17.64648 -12.68075,39.96032 -8.48225,60.14296c0.74593,11.63644 7.24614,21.56792 10.31509,32.54369c-2.2804,4.28375 -5.9674,7.60844 -8.41831,11.80694c-1.51315,5.34936 3.45258,9.48392 6.24448,13.44798c6.54282,7.22482 10.72001,16.15463 16.85792,23.65652c11.40201,11.46595 24.06145,21.65317 37.42418,30.73215c15.15296,10.3151 28.96325,22.54828 44.77688,31.92564c12.14793,8.11993 25.68117,13.78898 38.3406,21.07774c5.64772,3.21814 11.76432,5.49854 17.92354,7.58713c12.57418,4.07063 23.50733,12.14794 36.57169,14.91852c18.3924,4.32638 35.50608,13.14961 54.32473,15.85627c14.12998,2.2804 28.23864,4.77392 42.43254,6.86252c23.54996,3.66569 46.88678,10.5069 70.92692,9.50522c13.53323,-0.25574 26.93859,2.23778 40.47182,2.17384c26.29922,-0.04262 52.61976,-0.10655 78.91898,0c15.70708,0.12788 31.26496,-2.66402 46.97203,-2.19515c28.72882,0.72462 55.4756,-11.50857 83.37323,-16.36775c15.08902,-2.36565 28.64356,-9.65441 42.90141,-14.72671c13.10698,-4.7313 25.16967,-11.82826 37.8078,-17.62517c11.78562,-5.4346 21.03511,-15.08902 33.0978,-20.05476c16.68744,-6.84121 29.83704,-19.45801 43.32765,-31.00921c10.37903,-10.31509 22.39909,-18.86127 32.18138,-29.79442c9.48392,-10.44297 20.60887,-19.62851 27.89764,-31.90432c4.24112,-7.13959 2.87714,-16.04807 6.56415,-23.33684c6.54284,-7.37401 19.69244,0.341 17.58254,9.50524c-2.10991,9.44128 -5.66904,18.52028 -7.54451,28.04682c32.05352,0.34099 64.25621,1.61972 96.20315,-1.79022c14.40704,-1.17218 29.85836,-1.25742 42.98666,-7.88551c11.42333,-12.48894 14.81197,-30.05017 17.62517,-46.22611c0.91643,-10.18722 2.25909,-22.63353 -5.45592,-30.62559c-9.31341,-5.98872 -20.56625,-7.75763 -30.73215,-11.78564c-7.01171,-2.32303 -16.8153,-5.96741 -22.35647,1.00168c-7.18221,9.6331 -7.77894,22.37779 -14.04473,32.54369c-5.4346,8.67406 -11.10364,17.60385 -19.13833,24.08275c-5.75429,3.70832 -17.85961,2.9624 -18.49896,-5.49854c2.4722,-8.71668 9.8036,-14.74802 14.70539,-22.0581c9.03636,-12.084 12.5955,-27.00252 16.2612,-41.34561c1.83284,-8.01338 6.79858,-14.81197 9.14292,-22.59091c0.61806,-11.89219 -2.17384,-23.69914 -1.70497,-35.61264c0.3623,-14.40704 -4.68868,-28.04682 -9.14293,-41.49481c-3.92144,-11.44464 -2.06728,-24.82868 -9.71836,-34.8454c-9.24947,-12.57419 -15.34476,-27.06646 -24.06143,-39.98164c-12.12663,-20.90725 -27.8124,-39.44884 -40.49313,-60.01508c-2.9624,-4.62475 -6.60678,-8.73799 -10.27248,-12.78731c-8.26912,-8.97243 -14.12996,-19.84163 -22.71878,-28.537c-8.2265,-8.20518 -14.0234,-18.43503 -22.07941,-26.76809c-10.91183,-10.42166 -22.03679,-20.67281 -31.94695,-32.05352c-5.79691,-6.94775 -11.63644,-13.95946 -18.94652,-19.37275c-14.1726,-10.57085 -26.2566,-23.67783 -40.91938,-33.56669c-10.18722,-6.71333 -18.88259,-15.40869 -29.02718,-22.14333c-12.27581,-8.48225 -25.78773,-15.06772 -37.44548,-24.42376c-6.96909,-5.62641 -15.30215,-8.99374 -23.16634,-13.04305c-17.11368,-9.54785 -34.58966,-18.60553 -52.70501,-26.04348c-16.85793,-4.88049 -31.41414,-15.51526 -48.54913,-19.6072c-16.02675,-3.92144 -30.9879,-11.23152 -47.09991,-14.96115c-11.25283,-2.60008 -22.48434,-5.30673 -33.39617,-9.1003c-13.93816,-4.83785 -28.68619,-6.28708 -43.26372,-7.86419c-37.36024,-5.45591 -75.38116,-8.31175 -113.03977,-4.17719z" fill="#000000" id="svg_4"/>
  </g>
 </g>
</svg>