<svg width="1061" height="1061" xmlns="http://www.w3.org/2000/svg"><g class="layer"><path d="M488.922 721.758c6.479-.831 13.15 2.43 16.219 8.248 9.292 15.941 16.666 33.396 29.773 46.737 9.036 10.251 19.351 19.5 31.627 25.724 24.04 14.556 50.83 23.763 74.7 38.618 6.798 3.73 4.41 16.858-3.73 17.156-9.953.66-18.649-5.136-26.854-9.953-9.633-5.967-20.907-8.482-30.71-14.108-20.652-12.127-43.414-22.506-58.844-41.517-16.772-18.626-31.925-40.152-35.953-65.428-.299-2.515 1.833-4.369 3.772-5.477zM222.605 672.633c6.522-.042 10.592 6.607 12.404 12.127 3.857 13.277 3.665 27.514 8.866 40.45 8.226 20.332 18.541 39.96 31.456 57.671 11.36 10.592 21.59 22.527 33.908 32.032 18.456 12.617 35.57 27.13 54.58 38.96 10.529 6.286 21.014 13 29.603 21.865 2.43 2.664 5.925 6.586 3.282 10.337-3.175 6.33-11.892 7.608-17.71 4.347-8.056-4.496-14.642-11.167-22.548-15.877-13.086-7.928-24.552-18.158-37.34-26.534-15.92-10.038-31.115-21.461-44.52-34.696-10.422-13.725-24.446-24.85-31.82-40.749-4.092-8.61-8.14-17.22-12.595-25.638-7.8-14.77-10.763-31.33-14.705-47.377-1.705-7.673-3.58-16.198.447-23.486 1.087-2.558 4.199-3.261 6.692-3.432zM305.957 525.771c10.805-.15 21.909.81 32.117 4.497 3.751 2.089 9.91 5.797 7.481 10.827-4.113 11.679-10.315 23.933-21.76 29.9-3.24 1.471-7.203 4.178-10.57 1.556-12.873-7.693-19.054-22.995-20.46-37.36-.49-6.756 7.715-9.377 13.192-9.42m-.277 9.91c-.021 6.287-.043 13.3 4.56 18.244 2.942 3.644 7.652 9.121 12.682 5.498 6.116-5.158 7.63-13.427 8.44-20.971-8.42-2.153-17.093-2.28-25.682-2.77zM389.416 480.419c7.16-4.113 17.774 1.534 16.644 10.23-1.044 11.018-3.24 21.994-6.287 32.629-3.133 8.738-17.923 8.333-19.99-1.13-.363-10.102 2.024-20.119 3.601-30.071 1.044-4.199 1.45-9.719 6.032-11.658z"/><path d="M226.953 126.147c34.334-7.929 69.648-9.59 104.664-12.255 10.464-.831 20.758 2.089 31.2 1.662 18.606-1.257 37.041 2.238 55.52 3.88 20.054 2.812 40.578 4.049 59.865 10.698 22.484 8.482 46.802 10.763 68.881 20.566 22.634 6.927 43.54 18.137 65.897 25.788 17.348 8.695 34.76 17.327 51.512 27.13 8.375 4.284 17.177 8.056 24.19 14.514 7.778 6.969 17.667 10.72 26.298 16.453 21.142 15.622 42.305 31.265 61.997 48.762 8.909 8.099 18.862 15.238 26.3 24.871 8.674 11.253 20.8 19.117 29.922 29.987 7.033 8.44 15.387 15.643 22.697 23.87 19.288 22.74 37.638 46.225 55.86 69.818 5.434 8.141 8.865 17.625 15.77 24.807 8.312 8.738 12.298 20.31 18.777 30.306 10.379 16.666 20.928 33.759 25.937 52.94 3.708 14.236 11.636 27.13 13.66 41.857 2.494 18.286 5.861 36.891 2.814 55.348-.576 5.178-2.195 13.17 4.475 15.131 9.719 2.707 20.055 3.282 29.305 7.694 9.228 4.348 19.436 6.841 27.897 12.702 5.435 5.69 6.884 13.917 8.802 21.29 2.835 11.318 1.854 23.103-.192 34.463-2.387 13.021-3.516 26.853-10.762 38.319-6.799 10.826-16.581 21.099-29.667 23.55-20.14 3.793-40.6 5.797-61.017 7.523-9.1.597-18.136-1.3-27.237-1.044-12.04.234-24.082.064-36.124-.277-9.74.66-11.572-11.7-15.962-18.137-12.276 9.633-20.503 23.209-32.224 33.396-9.484 8.27-17.349 18.265-27.365 25.958-8.397 6.48-15.92 14.045-24.616 20.14-27.002 18.5-53.579 38.426-84.652 49.7-16.261 5.307-30.839 15.09-47.824 18.18-14.493 2.493-28.388 7.416-42.582 11.06-33.545 8.462-68.348 7.29-102.554 10.273-19.181.299-38.383-.234-57.586.15-12.808.362-25.468-1.961-38.255-2.11-26.427-.043-52.641-3.943-78.855-6.8-14.535-1.491-28.836-4.56-42.965-8.14-17.967-4.625-36.913-4.987-54.325-11.829-20.31-8.311-41.623-13.916-61.337-23.72-15.941-5.03-29.197-15.451-44.436-21.973-16.069-7.992-28.856-20.95-44.094-30.22-11.85-6.245-20.396-16.795-31.116-24.574-12.255-9.036-20.63-21.994-31.159-32.799-6.84-6.884-13.15-14.3-18.115-22.655-5.413-9.036-15.515-16.517-14.023-28.217 4.134-.682 8.269-1.364 12.403-1.982 4.135-10.38-1.15-20.886-2.813-31.159-4.475-21.823-.64-44.649 8.376-64.831 4.944-10.784 14.066-18.712 22.271-26.96 5.499-5.67 12.382-9.676 19.543-12.851 10.806-4.817 20.822-11.914 32.714-13.832 22.059-3.644 44.97-4.625 66.9.426 9.569 1.982 18.541 8.653 28.686 6.394-4.348-15.75-6.778-32.181-5.499-48.507.916-14.236-.021-29.282 6.82-42.304 6.202-12.19 11.594-24.893 19.287-36.274 7.076-10.528 17.753-17.86 25.618-27.684 3.005-3.623 1.406-8.972-1.812-11.85-6.202-6.33-13.299-12.169-16.56-20.694-17.369 5.925-36.251 4.668-54.111 1.94-16.155-2.941-32.608-4.604-48.421-9.143-10.23-2.792-18.414-9.804-26.47-16.304-8.567-7.076-17.455-14.492-22.271-24.743-4.795-10.06-10.656-20.14-11.232-31.521-.383-17.902-2.195-36.87 6.65-53.238 4.923-14.109 15.835-26.043 17.007-41.324-4.54-3.027-10.507-6.117-11.21-12.148.383-6.692 4.71-12.297 8.801-17.284 10.039-11.488 21.76-21.824 35.528-28.601 23.273-11.786 46.759-23.827 72.184-30.264 14.876-4.22 29.283-9.952 44.415-13.298m82.734 10.826c-18.457-.15-36.53 3.73-54.88 5.094-15.195 1.406-29.666 6.67-44.18 11.103-11.337 3.623-23.016 6.16-34.077 10.593-17.37 7.33-35.698 12.638-51.832 22.654-13.426 6.202-26.299 14.94-33.929 27.877-.042 7.95 11.573 11.87 10.4 20.395-3.324 12.447-13.49 21.568-17.795 33.631-4.497 12.446-11.36 24.893-9.825 38.575 1.257 14.727 4.305 30.072 13.342 42.198 12.318 17.007 32.756 26.449 53.067 29.73 14.535 2.132 29.09 4.988 43.839 4.753 7.012.192 14.109-.64 21.078.427 5.434 1.15 8.589 6.01 11.85 10.059 9.12-1.13 18.775-1.194 27.428 2.216 2.26-11.764 5.264-23.699 11.892-33.822 7.971-13.128 22.527-20.268 30.86-33.12 8.546-13.34 21.376-22.782 33.418-32.713 12.19-10.742 26.214-19.075 39.172-28.793 26.384-16.943 53.578-33.695 84.204-41.772 16.197-3.964 31.414-11.189 47.867-14.194 21.525-4.113 43.285-8.61 65.322-7.118.98 3.516 2.238 7.054 2.43 10.784-3.581 7.395-12.383 9.569-19.82 10.55-17.093 2.13-34.356 3.857-50.873 9.014-10.336 3.346-20.694 6.565-31.308 8.973-13.64 2.898-25.66 10.272-38.81 14.684-11.06 3.559-19.628 11.85-30.156 16.496-16.517 7.246-30.178 19.308-44.095 30.476-27.002 20.161-52.215 43.328-71.268 71.29-4.262 7.394-4.603 16.218-8.077 23.911-2.259 3.943-7.16 4.625-10.933 6.351 4.113 11.807 15.6 18.585 26.79 22.57 15.323 5.328 29.815 13.576 46.183 15.323 17.518 3.07 35.42 2.963 53.003.405 19.927-1.364 38.959-7.928 58.758-10.102 2.728 3.943 4.859 11.36 11.06 9.825 6.373-3.196 10.827-9.079 16.497-13.298 13.128-10.038 27.812-17.753 41.835-26.47 10.656-7.054 22.676-11.53 34.078-17.178 30.562-16.815 65.344-23.507 99.55-28.324 28.814-5.669 58.502-1.854 87.124 3.218 10.187 2.11 20.737 3.602 30.22 8.142 7.204 3.047 8.27 14.492 1.62 18.733-4.923 2.11-10.4.469-15.387-.405-20.63-5.008-41.218-11.572-62.637-11.636-23.06-1.513-45.885 2.962-68.135 8.482-23.337 5.925-47.377 10.954-68.54 22.932a439.084 439.084 0 0 0-33.438 17.689c-12.51 6.308-22.527 16.39-34.825 23.06-8.418 5.775-17.774 14.194-18.221 25.02 9.313 17.348 24.21 30.967 38.34 44.415 9.633 9.484 22.25 14.727 33.439 21.994 12.254 8.227 27.13 10.656 40.28 17.05 15.728 7.48 33.61 6.415 50.425 9.462 7.8 2.068 12.297-5.647 16.772-10.485 16.112-18.18 38.959-27.663 60.356-37.936 14.919-6.308 31.33-7.033 47.228-8.653 15.792-1.577 31.67-1.683 47.484-3.111 10.25-2.323 18.52 16.368 7.14 20.033-34.654 6.394-72.569-1.13-104.516 16.922-12.574 7.289-30.86 10.55-35.847 26.129 7.332.746 15.068 1.13 21.547 5.03 7.438 4.582 12.382 11.956 18.435 18.072 4.177 4.241 10.187 5.69 15.536 7.928 12.127 4.327 22.996 11.615 35.379 15.324 9.782 2.898 19.65 5.52 29.155 9.27 17.284 6.735 36.06 6.8 54.09 10.145 12.766 2.536 25.83 2.472 38.746 3.879 23.422 2.45 46.396-4.198 69.499-6.564 7.992-1.812 14.812 8.482 8.844 14.663-9.015 10.528-25.17 4.73-35.634 11.657-3.559 17.391 4.241 34.846 1.684 52.343-.96 4.56-4.348 8.077-6.99 11.743-3.283-3.005-8.76-5.157-8.803-10.315-1.342-15.345.81-31.457-5.008-46.077-1.982-4.71-7.736-4.113-11.892-4.412-19.415-.042-38.596-3.41-57.67-6.67-10.145-1.727-20.46-5.094-30.776-2.686 2.28 6.074 3.432 13.47 9.165 17.455 13.405 9.228 30.625 10.677 43.967 20.076 6.734 4.54 10.848 11.7 15.515 18.137-3.325 1.96-6.16 4.603-8.099 7.95-10.613-6.16-20.182-14.28-31.606-18.883-8.695-4.156-14.726 7.502-23.23 6.35-11.125-1.406-21.632-5.86-31.308-11.38-14.321-8.589-31.286-10.187-47.12-14.514-30.584-7.885-62.51-8.93-93.86-6.564-23.55 4.348-49.081 9.165-66.813 26.64-7.78 6.458-11.53 18.35-22.186 20.695-6.287 1.854-10.742-3.922-14.151-8.184-9.761-13.619-23.72-23.21-35.869-34.462-15.28-11.445-30.434-23.848-48.805-29.986-17.817-8.845-37.573-11.7-56.84-15.622-17.24-3.794-35.015-2.472-52.534-2.472-15.153.042-29.837 4.347-44.265 8.567-9.548 2.835-18.137 8.312-25.02 15.473-4.562 4.177-8.249 9.654-13.96 12.318-5.925.81-10.763-5.37-9.91-10.976-.235-10.208 8.738-16.602 15.728-22.484 18.115-15.856 42.944-18.968 65.578-23.976 24.445-2.174 49.614-2.6 73.59 3.516 20.034 4.796 40.984 7.417 59.355 17.391 18.712 7.8 35.144 19.8 51.15 32.054 11.465 9.313 20.395 21.354 32.522 29.922 6.095-3.9 12.084-7.97 17.54-12.745 9.462-8.546 21.631-12.979 33.055-18.222 16.303-7.331 34.461-7.906 51.959-9.654 20.118-2.6 40.216 1.364 60.25 2.75 13.916.852 27.79 3.217 40.855 8.226 12.808 4.795 26.683 3.26 40.045 2.77-4.454-8.013-11.231-14.385-18.541-19.756-7.183-5.243-16.134-6.777-24.36-9.654-10.23-3.283-19.266-9.293-29.283-13.044-7.928-3.154-16.496-5.69-22.719-11.806-5.626-5.009-9.462-11.807-15.622-16.176-9.356-1.386-18.882-.299-28.238-1.641-22.357-2.856-44.756-5.499-66.878-9.783-10.912-1.94-20.396-7.97-30.668-11.721-25.81-7.737-47.1-24.978-68.348-40.835-5.904-4.816-10.145-11.21-15.068-16.921-7.118-8.632-15.302-16.645-20.438-26.726-4.412-9.036-4.646-19.309-4.71-29.155-33.908 6.948-68.626 12.66-103.364 9.74-7.78-.661-15.366-3.027-23.188-3.176-3.112-.511-3.815 3.027-4.88 5.094-3.624 8.205-5.414 17.945-12.596 23.976-5.605 4.284-12.98-1.62-15.217-6.97-.81-10.975 6.394-20.31 12.446-28.75-11.7-3.494-20.417-15.578-33.374-14.193-5.861.128-9.314 5.498-12.617 9.57-5.264 7.416-10.827 14.62-16.752 21.503-9.25 10.464-12.83 24.253-18.35 36.764-6.52 14.364-5.498 30.455-5.22 45.82.276 16.688 7.608 32.097 14.704 46.866 4.881 10.784 16.922 14.94 24.595 23.337-4.604 9.036-10.187 19.224-20.758 22.016-7.183 1.577-12.809-4.71-15.217-10.72-4.263-7.929-6.095-19.267-15.92-22.165-21.59-7.8-43.69-18.222-67.262-15.494-12.297 1.769-25.489.362-36.827 6.308-8.397 4.412-16.9 8.59-25.298 12.98-9.654 4.901-15.515 14.385-21.61 22.91-11.573 17.646-12.68 39.96-8.482 60.143.746 11.636 7.246 21.568 10.315 32.544-2.28 4.283-5.968 7.608-8.419 11.807-1.513 5.349 3.453 9.483 6.245 13.448 6.543 7.224 10.72 16.154 16.858 23.656 11.402 11.466 24.061 21.653 37.424 30.732 15.153 10.315 28.963 22.548 44.777 31.926 12.148 8.12 25.681 13.789 38.34 21.078 5.648 3.218 11.765 5.498 17.924 7.587 12.574 4.07 23.507 12.148 36.572 14.918 18.392 4.327 35.506 13.15 54.324 15.857 14.13 2.28 28.239 4.773 42.433 6.862 23.55 3.666 46.887 10.507 70.927 9.505 13.533-.255 26.938 2.238 40.472 2.174 26.299-.043 52.62-.106 78.919 0 15.707.128 31.265-2.664 46.972-2.195 28.729.725 55.475-11.509 83.373-16.368 15.089-2.365 28.643-9.654 42.901-14.727 13.107-4.73 25.17-11.828 37.808-17.625 11.786-5.434 21.035-15.089 33.098-20.054 16.687-6.842 29.837-19.458 43.328-31.01 10.379-10.315 22.399-18.86 32.181-29.794 9.484-10.443 20.609-19.629 27.898-31.904 4.24-7.14 2.877-16.048 6.564-23.337 6.543-7.374 19.692.34 17.582 9.505-2.11 9.441-5.669 18.52-7.544 28.047 32.053.34 64.256 1.62 96.203-1.79 14.407-1.173 29.858-1.258 42.987-7.886 11.423-12.489 14.812-30.05 17.625-46.226.916-10.187 2.259-22.634-5.456-30.626-9.314-5.988-20.566-7.757-30.732-11.785-7.012-2.323-16.816-5.968-22.357 1.001-7.182 9.634-7.779 22.378-14.045 32.544-5.434 8.674-11.103 17.604-19.138 24.083-5.754 3.708-17.86 2.962-18.499-5.499 2.472-8.716 9.804-14.748 14.706-22.058 9.036-12.084 12.595-27.002 16.26-41.345 1.834-8.014 6.8-14.812 9.144-22.591.618-11.892-2.174-23.7-1.705-35.613.362-14.407-4.689-28.047-9.143-41.495-3.922-11.444-2.067-24.828-9.719-34.845-9.249-12.574-15.344-27.067-24.061-39.982-12.127-20.907-27.812-39.449-40.493-60.015-2.963-4.625-6.607-8.738-10.273-12.787-8.269-8.973-14.13-19.842-22.718-28.537-8.227-8.205-14.024-18.435-22.08-26.768-10.912-10.422-22.037-20.673-31.947-32.054-5.797-6.948-11.636-13.96-18.946-19.373-14.173-10.57-26.257-23.677-40.92-33.566-10.187-6.714-18.882-15.409-29.027-22.144-12.276-8.482-25.788-15.067-37.445-24.423-6.97-5.627-15.302-8.994-23.167-13.043-17.113-9.548-34.59-18.606-52.705-26.044-16.858-4.88-31.414-15.515-48.549-19.607-16.027-3.921-30.988-11.232-47.1-14.961-11.253-2.6-22.484-5.307-33.396-9.1-13.938-4.838-28.686-6.288-43.264-7.865-37.36-5.456-75.38-8.311-113.04-4.177z"/></g></svg>