<svg width="1061" height="834" xmlns="http://www.w3.org/2000/svg"><g class="layer"><path d="M488.922 608.016c6.479-.832 13.15 2.43 16.219 8.247 9.292 15.942 16.666 33.397 29.773 46.738 9.036 10.251 19.351 19.5 31.627 25.724 24.04 14.556 50.83 23.763 74.7 38.617 6.798 3.73 4.41 16.858-3.73 17.157-9.953.66-18.649-5.136-26.854-9.953-9.633-5.967-20.907-8.482-30.71-14.109-20.652-12.126-43.414-22.505-58.844-41.516-16.772-18.627-31.925-40.152-35.953-65.428-.299-2.515 1.833-4.37 3.772-5.477zM222.605 558.891c6.522-.043 10.592 6.607 12.404 12.127 3.857 13.277 3.665 27.514 8.866 40.45 8.226 20.332 18.541 39.96 31.456 57.67 11.36 10.593 21.59 22.528 33.908 32.033 18.456 12.617 35.57 27.13 54.58 38.959 10.529 6.287 21.014 13 29.603 21.866 2.43 2.664 5.925 6.585 3.282 10.336-3.175 6.33-11.892 7.609-17.71 4.348-8.056-4.497-14.642-11.167-22.548-15.877-13.086-7.929-24.552-18.158-37.34-26.534-15.92-10.038-31.115-21.461-44.52-34.696-10.422-13.725-24.446-24.85-31.82-40.75-4.092-8.61-8.14-17.22-12.595-25.638-7.8-14.77-10.763-31.329-14.705-47.377-1.705-7.672-3.58-16.197.447-23.486 1.087-2.557 4.199-3.26 6.692-3.431zM305.957 412.029c10.805-.15 21.909.81 32.117 4.497 3.751 2.088 9.91 5.797 7.481 10.826-4.113 11.68-10.315 23.934-21.76 29.901-3.24 1.47-7.203 4.177-10.57 1.556-12.873-7.694-19.054-22.996-20.46-37.36-.49-6.756 7.715-9.378 13.192-9.42m-.277 9.91c-.021 6.287-.043 13.299 4.56 18.243 2.942 3.645 7.652 9.122 12.682 5.499 6.116-5.158 7.63-13.427 8.44-20.971-8.42-2.153-17.093-2.28-25.682-2.771zM389.416 366.677c7.16-4.114 17.774 1.534 16.644 10.23-1.044 11.018-3.24 21.994-6.287 32.628-3.133 8.738-17.923 8.333-19.99-1.13-.363-10.101 2.024-20.118 3.601-30.07 1.044-4.2 1.45-9.72 6.032-11.658z"/><path d="M226.953 12.404C261.287 4.476 296.6 2.814 331.617.15c10.464-.831 20.758 2.088 31.2 1.662 18.606-1.257 37.041 2.238 55.52 3.879 20.054 2.813 40.578 4.05 59.865 10.699 22.484 8.482 46.802 10.762 68.881 20.566 22.634 6.926 43.54 18.137 65.897 25.788 17.348 8.695 34.76 17.326 51.512 27.13 8.375 4.284 17.177 8.056 24.19 14.514 7.778 6.969 17.667 10.72 26.298 16.453 21.142 15.621 42.305 31.265 61.997 48.762 8.909 8.098 18.862 15.238 26.3 24.871 8.674 11.253 20.8 19.117 29.922 29.986 7.033 8.44 15.387 15.644 22.697 23.87 19.288 22.74 37.638 46.226 55.86 69.819 5.434 8.14 8.865 17.625 15.77 24.807 8.312 8.738 12.298 20.31 18.777 30.306 10.379 16.666 20.928 33.758 25.937 52.94 3.708 14.236 11.636 27.13 13.66 41.857 2.494 18.285 5.861 36.89 2.814 55.347-.576 5.18-2.195 13.171 4.475 15.132 9.719 2.707 20.055 3.282 29.305 7.694 9.228 4.347 19.436 6.84 27.897 12.702 5.435 5.69 6.884 13.916 8.802 21.29 2.835 11.317 1.854 23.103-.192 34.462-2.387 13.022-3.516 26.854-10.762 38.32-6.799 10.826-16.581 21.099-29.667 23.55-20.14 3.793-40.6 5.796-61.017 7.523-9.1.596-18.136-1.3-27.237-1.045-12.04.235-24.082.064-36.124-.277-9.74.661-11.572-11.7-15.962-18.136-12.276 9.633-20.503 23.209-32.224 33.396-9.484 8.269-17.349 18.264-27.365 25.958-8.397 6.479-15.92 14.045-24.616 20.14-27.002 18.5-53.579 38.426-84.652 49.7-16.261 5.307-30.839 15.09-47.824 18.18-14.493 2.493-28.388 7.416-42.582 11.06-33.545 8.461-68.348 7.29-102.554 10.273-19.181.298-38.383-.235-57.586.15-12.808.361-25.468-1.962-38.255-2.11-26.427-.043-52.641-3.944-78.855-6.8-14.535-1.491-28.836-4.56-42.965-8.14-17.967-4.625-36.913-4.988-54.325-11.829-20.31-8.312-41.623-13.917-61.337-23.72-15.941-5.03-29.197-15.452-44.436-21.973-16.069-7.992-28.856-20.95-44.094-30.22-11.85-6.245-20.396-16.795-31.116-24.574-12.255-9.036-20.63-21.994-31.159-32.8-6.84-6.883-13.15-14.3-18.115-22.654C8.759 639.622-1.343 632.14.149 620.44c4.134-.682 8.269-1.364 12.403-1.982 4.135-10.38-1.15-20.886-2.813-31.159-4.475-21.824-.64-44.649 8.376-64.832 4.944-10.783 14.066-18.712 22.271-26.96 5.499-5.668 12.382-9.675 19.543-12.85 10.806-4.817 20.822-11.914 32.714-13.832 22.059-3.645 44.97-4.625 66.9.426 9.569 1.982 18.541 8.653 28.686 6.394-4.348-15.75-6.778-32.182-5.499-48.507.916-14.236-.021-29.283 6.82-42.305 6.202-12.19 11.594-24.892 19.287-36.273 7.076-10.528 17.753-17.86 25.618-27.684 3.005-3.623 1.406-8.973-1.812-11.85-6.202-6.33-13.299-12.17-16.56-20.694-17.369 5.925-36.251 4.667-54.111 1.94-16.155-2.942-32.608-4.604-48.421-9.144-10.23-2.791-18.414-9.803-26.47-16.303-8.567-7.076-17.455-14.493-22.271-24.744-4.795-10.06-10.656-20.14-11.232-31.52-.383-17.903-2.195-36.87 6.65-53.238 4.923-14.109 15.835-26.044 17.007-41.325-4.54-3.026-10.507-6.116-11.21-12.148.383-6.692 4.71-12.297 8.801-17.284 10.039-11.487 21.76-21.823 35.528-28.6 23.273-11.786 46.759-23.828 72.184-30.264 14.876-4.22 29.283-9.953 44.415-13.299m82.734 10.827c-18.457-.15-36.53 3.73-54.88 5.093-15.195 1.407-29.666 6.671-44.18 11.104-11.337 3.623-23.016 6.16-34.077 10.592-17.37 7.332-35.698 12.638-51.832 22.655-13.426 6.202-26.299 14.94-33.929 27.876-.042 7.95 11.573 11.871 10.4 20.396-3.324 12.446-13.49 21.568-17.795 33.63-4.497 12.447-11.36 24.893-9.825 38.576 1.257 14.726 4.305 30.071 13.342 42.198 12.318 17.007 32.756 26.448 53.067 29.73 14.535 2.132 29.09 4.987 43.839 4.753 7.012.192 14.109-.64 21.078.426 5.434 1.151 8.589 6.01 11.85 10.06 9.12-1.13 18.775-1.194 27.428 2.216 2.26-11.764 5.264-23.7 11.892-33.822 7.971-13.129 22.527-20.268 30.86-33.12 8.546-13.34 21.376-22.782 33.418-32.714 12.19-10.741 26.214-19.074 39.172-28.792 26.384-16.944 53.578-33.695 84.204-41.772 16.197-3.964 31.414-11.19 47.867-14.194 21.525-4.113 43.285-8.61 65.322-7.118.98 3.516 2.238 7.054 2.43 10.783-3.581 7.396-12.383 9.57-19.82 10.55-17.093 2.131-34.356 3.858-50.873 9.015-10.336 3.346-20.694 6.564-31.308 8.972-13.64 2.899-25.66 10.273-38.81 14.685-11.06 3.559-19.628 11.85-30.156 16.495-16.517 7.246-30.178 19.309-44.095 30.477-27.002 20.16-52.215 43.327-71.268 71.289-4.262 7.395-4.603 16.218-8.077 23.912-2.259 3.943-7.16 4.625-10.933 6.351 4.113 11.807 15.6 18.584 26.79 22.57 15.323 5.328 29.815 13.576 46.183 15.323 17.518 3.07 35.42 2.963 53.003.405 19.927-1.364 38.959-7.928 58.758-10.102 2.728 3.943 4.859 11.36 11.06 9.825 6.373-3.197 10.827-9.079 16.497-13.299 13.128-10.038 27.812-17.753 41.835-26.47 10.656-7.054 22.676-11.53 34.078-17.177 30.562-16.815 65.344-23.507 99.55-28.324 28.814-5.669 58.502-1.854 87.124 3.218 10.187 2.11 20.737 3.602 30.22 8.141 7.204 3.048 8.27 14.493 1.62 18.734-4.923 2.11-10.4.469-15.387-.405-20.63-5.008-41.218-11.573-62.637-11.637-23.06-1.513-45.885 2.963-68.135 8.483-23.337 5.924-47.377 10.954-68.54 22.932a439.084 439.084 0 0 0-33.438 17.689c-12.51 6.308-22.527 16.389-34.825 23.06-8.418 5.775-17.774 14.193-18.221 25.02 9.313 17.348 24.21 30.967 38.34 44.415 9.633 9.483 22.25 14.726 33.439 21.994 12.254 8.226 27.13 10.656 40.28 17.05 15.728 7.48 33.61 6.414 50.425 9.462 7.8 2.067 12.297-5.648 16.772-10.486 16.112-18.179 38.959-27.663 60.356-37.935 14.919-6.309 31.33-7.033 47.228-8.653 15.792-1.577 31.67-1.684 47.484-3.112 10.25-2.323 18.52 16.368 7.14 20.034-34.654 6.394-72.569-1.13-104.516 16.922-12.574 7.289-30.86 10.55-35.847 26.129 7.332.745 15.068 1.129 21.547 5.03 7.438 4.581 12.382 11.955 18.435 18.072 4.177 4.241 10.187 5.69 15.536 7.928 12.127 4.326 22.996 11.615 35.379 15.323 9.782 2.899 19.65 5.52 29.155 9.271 17.284 6.735 36.06 6.799 54.09 10.145 12.766 2.536 25.83 2.472 38.746 3.879 23.422 2.45 46.396-4.199 69.499-6.564 7.992-1.812 14.812 8.482 8.844 14.662-9.015 10.529-25.17 4.732-35.634 11.658-3.559 17.39 4.241 34.845 1.684 52.343-.96 4.56-4.348 8.077-6.99 11.743-3.283-3.005-8.76-5.158-8.803-10.315-1.342-15.345.81-31.457-5.008-46.077-1.982-4.71-7.736-4.113-11.892-4.412-19.415-.042-38.596-3.41-57.67-6.67-10.145-1.727-20.46-5.094-30.776-2.686 2.28 6.074 3.432 13.47 9.165 17.455 13.405 9.228 30.625 10.677 43.967 20.076 6.734 4.54 10.848 11.7 15.515 18.137-3.325 1.96-6.16 4.603-8.099 7.949-10.613-6.16-20.182-14.28-31.606-18.883-8.695-4.156-14.726 7.502-23.23 6.351-11.125-1.406-21.632-5.86-31.308-11.38-14.321-8.59-31.286-10.188-47.12-14.514-30.584-7.885-62.51-8.93-93.86-6.564-23.55 4.348-49.081 9.164-66.813 26.64-7.78 6.458-11.53 18.35-22.186 20.694-6.287 1.854-10.742-3.921-14.151-8.184-9.761-13.618-23.72-23.209-35.869-34.461-15.28-11.445-30.434-23.849-48.805-29.987-17.817-8.844-37.573-11.7-56.84-15.621-17.24-3.794-35.015-2.473-52.534-2.473-15.153.043-29.837 4.348-44.265 8.568-9.548 2.834-18.137 8.312-25.02 15.472-4.562 4.178-8.249 9.655-13.96 12.319-5.925.81-10.763-5.37-9.91-10.976-.235-10.208 8.738-16.602 15.728-22.484 18.115-15.856 42.944-18.968 65.578-23.976 24.445-2.174 49.614-2.6 73.59 3.516 20.034 4.795 40.984 7.417 59.355 17.39 18.712 7.801 35.144 19.8 51.15 32.054 11.465 9.314 20.395 21.355 32.522 29.923 6.095-3.9 12.084-7.971 17.54-12.745 9.462-8.546 21.631-12.98 33.055-18.222 16.303-7.331 34.461-7.907 51.959-9.654 20.118-2.6 40.216 1.364 60.25 2.749 13.916.852 27.79 3.218 40.855 8.226 12.808 4.796 26.683 3.261 40.045 2.771-4.454-8.013-11.231-14.386-18.541-19.756-7.183-5.243-16.134-6.778-24.36-9.655-10.23-3.282-19.266-9.292-29.283-13.043-7.928-3.154-16.496-5.69-22.719-11.807-5.626-5.008-9.462-11.807-15.622-16.176-9.356-1.385-18.882-.298-28.238-1.64-22.357-2.857-44.756-5.5-66.878-9.783-10.912-1.94-20.396-7.97-30.668-11.722-25.81-7.736-47.1-24.978-68.348-40.834-5.904-4.816-10.145-11.21-15.068-16.922-7.118-8.631-15.302-16.645-20.438-26.725-4.412-9.037-4.646-19.309-4.71-29.155-33.908 6.948-68.626 12.66-103.364 9.74-7.78-.661-15.366-3.027-23.188-3.176-3.112-.512-3.815 3.026-4.88 5.094-3.624 8.205-5.414 17.944-12.596 23.976-5.605 4.283-12.98-1.62-15.217-6.97-.81-10.975 6.394-20.31 12.446-28.75-11.7-3.495-20.417-15.579-33.374-14.193-5.861.127-9.314 5.498-12.617 9.569-5.264 7.416-10.827 14.62-16.752 21.504-9.25 10.464-12.83 24.253-18.35 36.763-6.52 14.365-5.498 30.455-5.22 45.821.276 16.688 7.608 32.097 14.704 46.866 4.881 10.784 16.922 14.94 24.595 23.337-4.604 9.036-10.187 19.223-20.758 22.015-7.183 1.577-12.809-4.71-15.217-10.72-4.263-7.928-6.095-19.266-15.92-22.164-21.59-7.8-43.69-18.222-67.262-15.494-12.297 1.768-25.489.362-36.827 6.308-8.397 4.412-16.9 8.589-25.298 12.98-9.654 4.9-15.515 14.385-21.61 22.91-11.573 17.646-12.68 39.96-8.482 60.143.746 11.636 7.246 21.568 10.315 32.543-2.28 4.284-5.968 7.609-8.419 11.807-1.513 5.35 3.453 9.484 6.245 13.448 6.543 7.225 10.72 16.155 16.858 23.657 11.402 11.466 24.061 21.653 37.424 30.732 15.153 10.315 28.963 22.548 44.777 31.926 12.148 8.12 25.681 13.789 38.34 21.077 5.648 3.218 11.765 5.499 17.924 7.587 12.574 4.071 23.507 12.148 36.572 14.919 18.392 4.326 35.506 13.15 54.324 15.856 14.13 2.28 28.239 4.774 42.433 6.863 23.55 3.665 46.887 10.507 70.927 9.505 13.533-.256 26.938 2.238 40.472 2.174 26.299-.043 52.62-.107 78.919 0 15.707.128 31.265-2.664 46.972-2.195 28.729.724 55.475-11.509 83.373-16.368 15.089-2.366 28.643-9.655 42.901-14.727 13.107-4.731 25.17-11.828 37.808-17.625 11.786-5.435 21.035-15.089 33.098-20.055 16.687-6.841 29.837-19.458 43.328-31.009 10.379-10.315 22.399-18.861 32.181-29.794 9.484-10.443 20.609-19.629 27.898-31.905 4.24-7.14 2.877-16.048 6.564-23.337 6.543-7.374 19.692.341 17.582 9.506-2.11 9.441-5.669 18.52-7.544 28.047 32.053.34 64.256 1.62 96.203-1.79 14.407-1.173 29.858-1.258 42.987-7.886 11.423-12.49 14.812-30.05 17.625-46.226.916-10.188 2.259-22.634-5.456-30.626-9.314-5.989-20.566-7.758-30.732-11.786-7.012-2.323-16.816-5.967-22.357 1.002-7.182 9.633-7.779 22.378-14.045 32.544-5.434 8.674-11.103 17.604-19.138 24.083-5.754 3.708-17.86 2.962-18.499-5.499 2.472-8.717 9.804-14.748 14.706-22.058 9.036-12.084 12.595-27.003 16.26-41.346 1.834-8.013 6.8-14.812 9.144-22.59.618-11.893-2.174-23.7-1.705-35.613.362-14.407-4.689-28.047-9.143-41.495-3.922-11.445-2.067-24.829-9.719-34.845-9.249-12.575-15.344-27.067-24.061-39.982-12.127-20.907-27.812-39.449-40.493-60.015-2.963-4.625-6.607-8.738-10.273-12.787-8.269-8.973-14.13-19.842-22.718-28.537-8.227-8.206-14.024-18.436-22.08-26.769-10.912-10.421-22.037-20.672-31.947-32.053-5.797-6.948-11.636-13.96-18.946-19.373-14.173-10.57-26.257-23.678-40.92-33.567-10.187-6.713-18.882-15.408-29.027-22.143-12.276-8.482-25.788-15.068-37.445-24.424-6.97-5.626-15.302-8.993-23.167-13.043-17.113-9.548-34.59-18.605-52.705-26.043-16.858-4.88-31.414-15.515-48.549-19.607-16.027-3.922-30.988-11.232-47.1-14.961-11.253-2.6-22.484-5.307-33.396-9.1-13.938-4.839-28.686-6.288-43.264-7.865-37.36-5.456-75.38-8.312-113.04-4.177z"/></g></svg>